<?xml version="1.0" encoding="UTF-8" standalone="no"?>
<svg
   id="Layer_2"
   data-name="Layer 2"
   viewBox="0 0 48 48"
   version="1.1"
   sodipodi:docname="adobephotoshop.svg"
   inkscape:version="1.2.2 (b0a8486, 2022-12-01)"
   xmlns:inkscape="http://www.inkscape.org/namespaces/inkscape"
   xmlns:sodipodi="http://sodipodi.sourceforge.net/DTD/sodipodi-0.dtd"
   xmlns="http://www.w3.org/2000/svg"
   xmlns:svg="http://www.w3.org/2000/svg">
  <sodipodi:namedview
     id="namedview19"
     pagecolor="#ffffff"
     bordercolor="#000000"
     borderopacity="0.25"
     inkscape:showpageshadow="2"
     inkscape:pageopacity="0.0"
     inkscape:pagecheckerboard="0"
     inkscape:deskcolor="#d1d1d1"
     showgrid="false"
     inkscape:zoom="17.104167"
     inkscape:cx="20.725944"
     inkscape:cy="24.058465"
     inkscape:window-width="1920"
     inkscape:window-height="1006"
     inkscape:window-x="0"
     inkscape:window-y="50"
     inkscape:window-maximized="1"
     inkscape:current-layer="Layer_2" />
  <defs
     id="defs4">
    <style
       id="style2">.cls-1{fill:none;stroke:#fff;stroke-linecap:round;stroke-linejoin:round;}</style>
  </defs>
  <path
     class="cls-1"
     d="M40.5,5.5H7.5a2,2,0,0,0-2,2v33a2,2,0,0,0,2,2h33a2,2,0,0,0,2-2V7.5A2,2,0,0,0,40.5,5.5Z"
     id="path6"
     style="stroke:#30a6fd;stroke-opacity:1" />
  <path
     class="cls-1"
     d="M10.89,34V14h6.67a6.69,6.69,0,0,1,0,13.38H10.89"
     id="path8"
     style="stroke:#30a6fd;stroke-opacity:1" />
  <path
     class="cls-1"
     d="M31.69,21a3.23,3.23,0,0,0-3.23,3.24h0a3.23,3.23,0,0,0,3.23,3.24h1.1"
     id="path10"
     style="stroke:#30a6fd;stroke-opacity:1" />
  <path
     class="cls-1"
     d="M32.79,27.49h1.09a3.23,3.23,0,0,1,3.23,3.23h0A3.23,3.23,0,0,1,33.88,34"
     id="path12"
     style="stroke:#30a6fd;stroke-opacity:1" />
  <path
     class="cls-1"
     d="M36.8,22.1c-.89-.75-1.85-1.09-4-1.09h-1.1"
     id="path14"
     style="stroke:#30a6fd;stroke-opacity:1" />
  <path
     class="cls-1"
     d="M28.77,32.87c.89.75,1.85,1.09,4,1.09h1.09"
     id="path16"
     style="stroke:#30a6fd;stroke-opacity:1" />
</svg>
