<?xml version="1.0" encoding="UTF-8" standalone="no"?>
<svg
   id="Layer_2"
   data-name="Layer 2"
   viewBox="0 0 48 48"
   version="1.1"
   sodipodi:docname="airbnb.svg"
   inkscape:version="1.2.2 (b0a8486, 2022-12-01)"
   xmlns:inkscape="http://www.inkscape.org/namespaces/inkscape"
   xmlns:sodipodi="http://sodipodi.sourceforge.net/DTD/sodipodi-0.dtd"
   xmlns="http://www.w3.org/2000/svg"
   xmlns:svg="http://www.w3.org/2000/svg">
  <sodipodi:namedview
     id="namedview9"
     pagecolor="#ffffff"
     bordercolor="#000000"
     borderopacity="0.25"
     inkscape:showpageshadow="2"
     inkscape:pageopacity="0.0"
     inkscape:pagecheckerboard="0"
     inkscape:deskcolor="#d1d1d1"
     showgrid="false"
     inkscape:zoom="17.104167"
     inkscape:cx="20.725944"
     inkscape:cy="24.058465"
     inkscape:window-width="1920"
     inkscape:window-height="1006"
     inkscape:window-x="0"
     inkscape:window-y="50"
     inkscape:window-maximized="1"
     inkscape:current-layer="Layer_2" />
  <defs
     id="defs4">
    <style
       id="style2">.cls-1{fill:none;stroke:#fff;stroke-linecap:round;stroke-linejoin:round;}</style>
  </defs>
  <g
     id="layer1"
     style="stroke:#ff4163;stroke-opacity:1">
    <path
       id="path2"
       class="cls-1"
       d="M42,32.36c-.2-.49-.38-1-.58-1.44l-.93-2.09,0,0c-2.75-6-5.69-12.09-8.8-18.09l-.12-.25c-.32-.59-.63-1.24-.95-1.84a11.68,11.68,0,0,0-1.43-2.19,6.61,6.61,0,0,0-10.24,0,14.76,14.76,0,0,0-1.42,2.19c-.32.65-.63,1.29-.95,1.88l-.13.25c-3.06,6-6,12.09-8.79,18.09l-.08.07c-.27.65-.6,1.32-.91,2.05-.2.44-.4.91-.6,1.44a8.49,8.49,0,0,0,9,11.52,10.44,10.44,0,0,0,4-1.37A20.29,20.29,0,0,0,24,38.4a21.21,21.21,0,0,0,4.94,4.16,10.43,10.43,0,0,0,5,1.44,8.48,8.48,0,0,0,8.43-7.28A7.42,7.42,0,0,0,42,32.35Zm-17.93,6c-3.2-4.08-5.28-7.84-6-11a9.74,9.74,0,0,1-.18-3.65,5.76,5.76,0,0,1,1-2.49,6.3,6.3,0,0,1,5.2-2.62,6.13,6.13,0,0,1,5.2,2.61,5.8,5.8,0,0,1,.95,2.5,9.4,9.4,0,0,1-.19,3.65c-.7,3.16-2.78,6.95-6,11Z"
       style="stroke:#ff4163;stroke-opacity:1" />
  </g>
</svg>
