<?xml version="1.0" encoding="UTF-8" standalone="no"?>
<svg
   viewBox="0 0 48 48"
   version="1.1"
   id="svg1594"
   sodipodi:docname="aliucord.svg"
   inkscape:version="1.2.2 (b0a8486, 2022-12-01)"
   xmlns:inkscape="http://www.inkscape.org/namespaces/inkscape"
   xmlns:sodipodi="http://sodipodi.sourceforge.net/DTD/sodipodi-0.dtd"
   xmlns="http://www.w3.org/2000/svg"
   xmlns:svg="http://www.w3.org/2000/svg">
  <sodipodi:namedview
     id="namedview1596"
     pagecolor="#ffffff"
     bordercolor="#000000"
     borderopacity="0.25"
     inkscape:showpageshadow="2"
     inkscape:pageopacity="0.0"
     inkscape:pagecheckerboard="0"
     inkscape:deskcolor="#d1d1d1"
     showgrid="false"
     inkscape:zoom="17.104167"
     inkscape:cx="24"
     inkscape:cy="24.058465"
     inkscape:window-width="1920"
     inkscape:window-height="1006"
     inkscape:window-x="0"
     inkscape:window-y="50"
     inkscape:window-maximized="1"
     inkscape:current-layer="svg1594" />
  <defs
     id="defs1586">
    <style
       id="style1584">.a{fill:none;stroke:#000;stroke-linecap:round;stroke-linejoin:round;}</style>
  </defs>
  <path
     class="a"
     d="M17.59,34.1733c-.89,1.3069-1.8944,2.6152-2.91,3.8267C7.3,37.79,4.5,33,4.5,33A44.83,44.83,0,0,1,9.31,13.48,16.47,16.47,0,0,1,18.69,10l1,2.31A32.6875,32.6875,0,0,1,24,12a32.9643,32.9643,0,0,1,4.33.3l1-2.31a16.47,16.47,0,0,1,9.38,3.51A44.8292,44.8292,0,0,1,43.5,33s-2.8,4.79-10.18,5a47.4193,47.4193,0,0,1-2.86-3.81m6.46-2.9c-3.84,1.9454-7.5555,3.89-12.92,3.89s-9.08-1.9446-12.92-3.89"
     id="path1588"
     style="fill:none;fill-opacity:1;stroke:#00bf4f;stroke-opacity:1" />
  <circle
     class="a"
     cx="17.847"
     cy="26.23"
     r="3.35"
     id="circle1590"
     style="stroke:#00bf4f;stroke-opacity:1" />
  <circle
     class="a"
     cx="30.153"
     cy="26.23"
     r="3.35"
     id="circle1592"
     style="stroke:#00bf4f;stroke-opacity:1" />
</svg>
