<?xml version="1.0" encoding="UTF-8" standalone="no"?>
<svg
   id="Layer_2"
   data-name="Layer 2"
   viewBox="0 0 48 48"
   version="1.1"
   sodipodi:docname="amongus.svg"
   inkscape:version="1.2.2 (b0a8486, 2022-12-01)"
   xmlns:inkscape="http://www.inkscape.org/namespaces/inkscape"
   xmlns:sodipodi="http://sodipodi.sourceforge.net/DTD/sodipodi-0.dtd"
   xmlns="http://www.w3.org/2000/svg"
   xmlns:svg="http://www.w3.org/2000/svg">
  <sodipodi:namedview
     id="namedview13"
     pagecolor="#ffffff"
     bordercolor="#000000"
     borderopacity="0.25"
     inkscape:showpageshadow="2"
     inkscape:pageopacity="0.0"
     inkscape:pagecheckerboard="0"
     inkscape:deskcolor="#d1d1d1"
     showgrid="false"
     inkscape:zoom="17.104167"
     inkscape:cx="22.246041"
     inkscape:cy="26.747868"
     inkscape:window-width="1920"
     inkscape:window-height="1006"
     inkscape:window-x="0"
     inkscape:window-y="50"
     inkscape:window-maximized="1"
     inkscape:current-layer="Layer_2" />
  <defs
     id="defs4">
    <style
       id="style2">.cls-1{fill:none;stroke:#000;stroke-linecap:round;stroke-linejoin:round;}</style>
  </defs>
  <path
     class="cls-1"
     d="M10.26,13.63a21,21,0,0,1,.86-3.55c1-2,2.4-4.42,8.73-5.25A50.43,50.43,0,0,1,26.13,5c3.89.3,5.79,2.64,7.2,7.2A52.18,52.18,0,0,1,35,19.75l.09,23.48H6.88c-1.21-5.1-.54-13.38.48-18.91"
     id="path8"
     style="stroke:#ee1616;stroke-opacity:1" />
  <path
     class="cls-1"
     d="M35,19.75a53.53,53.53,0,0,1,6.43,1.44c.56.28,1.14.59,1.17,1.08.58,7.34,1.25,15.92.61,21H35.12"
     id="path10"
     style="stroke:#ee1616;stroke-opacity:1" />
  <path
     class="cls-1"
     d="M24.53,21.13a5.48,5.48,0,0,1-4.47,4.48c-3.95.85-9.1.68-12.7-1.29-5-2.71-3.13-10,2.9-10.69,4.59-.48,7.77-.76,11.51.46C23.47,14.64,25.7,15.31,24.53,21.13Z"
     id="path6"
     style="stroke:#ffffff;stroke-opacity:1" />
</svg>
