<?xml version="1.0" encoding="UTF-8" standalone="no"?>
<svg
   id="Layer_2"
   data-name="Layer 2"
   viewBox="0 0 48 48"
   version="1.1"
   sodipodi:docname="aurora_store.svg"
   inkscape:version="1.2.2 (b0a8486, 2022-12-01)"
   xmlns:inkscape="http://www.inkscape.org/namespaces/inkscape"
   xmlns:sodipodi="http://sodipodi.sourceforge.net/DTD/sodipodi-0.dtd"
   xmlns:xlink="http://www.w3.org/1999/xlink"
   xmlns="http://www.w3.org/2000/svg"
   xmlns:svg="http://www.w3.org/2000/svg">
  <sodipodi:namedview
     id="namedview11"
     pagecolor="#ffffff"
     bordercolor="#000000"
     borderopacity="0.25"
     inkscape:showpageshadow="2"
     inkscape:pageopacity="0.0"
     inkscape:pagecheckerboard="0"
     inkscape:deskcolor="#d1d1d1"
     showgrid="false"
     inkscape:zoom="17.104167"
     inkscape:cx="21.135201"
     inkscape:cy="28.794153"
     inkscape:window-width="1920"
     inkscape:window-height="1006"
     inkscape:window-x="0"
     inkscape:window-y="50"
     inkscape:window-maximized="1"
     inkscape:current-layer="Layer_2" />
  <defs
     id="defs4">
    <linearGradient
       inkscape:collect="always"
       id="linearGradient3948">
      <stop
         style="stop-color:#ff4ca5;stop-opacity:1;"
         offset="0"
         id="stop3936" />
      <stop
         style="stop-color:#ff4ca5;stop-opacity:1;"
         offset="0.33375913"
         id="stop3938" />
      <stop
         style="stop-color:#33b9ff;stop-opacity:1;"
         offset="0.33375913"
         id="stop3940" />
      <stop
         style="stop-color:#33bbff;stop-opacity:1;"
         offset="0.68299735"
         id="stop3942" />
      <stop
         style="stop-color:#ffaa00;stop-opacity:1;"
         offset="0.68299735"
         id="stop3944" />
      <stop
         style="stop-color:#ffaa00;stop-opacity:1;"
         offset="1"
         id="stop3946" />
    </linearGradient>
    <linearGradient
       inkscape:collect="always"
       id="linearGradient6683">
      <stop
         style="stop-color:#ff4ca7;stop-opacity:1;"
         offset="0"
         id="stop6679" />
      <stop
         style="stop-color:#ff4ca7;stop-opacity:1;"
         offset="0.33375913"
         id="stop11159" />
      <stop
         style="stop-color:#45acfc;stop-opacity:1;"
         offset="0.33375913"
         id="stop11161" />
      <stop
         style="stop-color:#45acfc;stop-opacity:1;"
         offset="0.68299735"
         id="stop6687" />
      <stop
         style="stop-color:#ffb800;stop-opacity:1;"
         offset="0.68299735"
         id="stop11163" />
      <stop
         style="stop-color:#ffb800;stop-opacity:1;"
         offset="1"
         id="stop6681" />
    </linearGradient>
    <style
       id="style2">.cls-1{fill:none;stroke:#000;stroke-linecap:round;stroke-linejoin:round;}</style>
    <linearGradient
       inkscape:collect="always"
       xlink:href="#linearGradient3948"
       id="linearGradient6685"
       x1="11.068832"
       y1="11.491943"
       x2="45.073006"
       y2="42.742119"
       gradientUnits="userSpaceOnUse"
       spreadMethod="pad" />
    <linearGradient
       inkscape:collect="always"
       xlink:href="#linearGradient6683"
       id="linearGradient11295"
       x1="21.340036"
       y1="31.955027"
       x2="26.669964"
       y2="31.955027"
       gradientUnits="userSpaceOnUse" />
  </defs>
  <polygon
     class="cls-1"
     points="21.84 33.87 26.17 33.87 24 30.04 21.84 33.87"
     id="polygon6"
     style="stroke:url(#linearGradient11295)" />
  <path
     class="cls-1"
     d="M41.38,19.84H33.52l-7.77-13a2,2,0,0,0-3.5,0l-7.77,13H6.62a3.12,3.12,0,0,0-3,3.93L8,40.08a2.84,2.84,0,0,0,2.74,2.1H37.24A2.84,2.84,0,0,0,40,40.08l4.41-16.31A3.12,3.12,0,0,0,41.38,19.84ZM24,11.84l4.77,8H19.23Zm6.35,24.33a1.7,1.7,0,0,1-1.46.84H19.11a1.69,1.69,0,0,1-1.47-2.52l4.89-8.62a1.69,1.69,0,0,1,2.94,0l4.89,8.62A1.71,1.71,0,0,1,30.35,36.17Z"
     id="path8"
     style="stroke:url(#linearGradient6685);stroke-opacity:1" />
</svg>
