<?xml version="1.0" encoding="UTF-8" standalone="no"?>
<svg
   id="Layer_2"
   data-name="Layer 2"
   viewBox="0 0 48 48"
   version="1.1"
   sodipodi:docname="aurora_services.svg"
   inkscape:version="1.2.2 (b0a8486, 2022-12-01)"
   xmlns:inkscape="http://www.inkscape.org/namespaces/inkscape"
   xmlns:sodipodi="http://sodipodi.sourceforge.net/DTD/sodipodi-0.dtd"
   xmlns:xlink="http://www.w3.org/1999/xlink"
   xmlns="http://www.w3.org/2000/svg"
   xmlns:svg="http://www.w3.org/2000/svg">
  <sodipodi:namedview
     id="namedview9"
     pagecolor="#ffffff"
     bordercolor="#000000"
     borderopacity="0.25"
     inkscape:showpageshadow="2"
     inkscape:pageopacity="0.0"
     inkscape:pagecheckerboard="0"
     inkscape:deskcolor="#d1d1d1"
     showgrid="false"
     inkscape:zoom="17.104167"
     inkscape:cx="21.719854"
     inkscape:cy="24.116931"
     inkscape:window-width="1920"
     inkscape:window-height="1006"
     inkscape:window-x="0"
     inkscape:window-y="50"
     inkscape:window-maximized="1"
     inkscape:current-layer="Layer_2" />
  <defs
     id="defs4">
    <linearGradient
       inkscape:collect="always"
       id="6683">
      <stop
         style="stop-color:#ff4ca7;stop-opacity:1;"
         offset="0"
         id="stop1750" />
      <stop
         style="stop-color:#ff4ca7;stop-opacity:1;"
         offset="0.32884467"
         id="stop6878" />
      <stop
         style="stop-color:#33b9ff;stop-opacity:1;"
         offset="0.32884467"
         id="stop6880" />
      <stop
         style="stop-color:#33b9ff;stop-opacity:1;"
         offset="0.66229641"
         id="stop6882" />
      <stop
         style="stop-color:#ffaa00;stop-opacity:1;"
         offset="0.66229641"
         id="stop6884" />
      <stop
         style="stop-color:#ffaa00;stop-opacity:1;"
         offset="0.96875"
         id="stop6886" />
    </linearGradient>
    <style
       id="style2">.cls-1{fill:none;stroke:#000;stroke-linecap:round;stroke-linejoin:round;}</style>
    <linearGradient
       inkscape:collect="always"
       xlink:href="#6683"
       id="linearGradient1756"
       x1="12.049099"
       y1="6.1252432"
       x2="34.855423"
       y2="42.695644"
       gradientUnits="userSpaceOnUse" />
  </defs>
  <path
     class="cls-1"
     d="M43.8,30.7l-4.1,7.11a1,1,0,0,1-1.25.44l-5.11-2.06a15.36,15.36,0,0,1-3.46,2l-.77,5.43a1,1,0,0,1-1,.86h-8.2a1,1,0,0,1-1-.86l-.77-5.43a15.68,15.68,0,0,1-3.46-2L9.54,38.25a1,1,0,0,1-1.25-.44L4.19,30.7a1,1,0,0,1,.25-1.31L8.76,26a16.52,16.52,0,0,1-.14-2,16.66,16.66,0,0,1,.14-2L4.44,18.61a1,1,0,0,1-.25-1.31l4.1-7.11a1,1,0,0,1,1.25-.44l5.11,2.06a15.36,15.36,0,0,1,3.46-2l.77-5.43a1,1,0,0,1,1-.86h8.2a1.05,1.05,0,0,1,1,.86l.77,5.43a15.68,15.68,0,0,1,3.46,2l5.11-2.06a1,1,0,0,1,1.25.44l4.1,7.11a1,1,0,0,1-.25,1.31L39.23,22a16.52,16.52,0,0,1,.14,2,16.52,16.52,0,0,1-.14,2l4.32,3.39A1,1,0,0,1,43.8,30.7ZM25.47,18.86a1.69,1.69,0,0,0-2.94,0l-4.89,8.62A1.69,1.69,0,0,0,19.11,30h9.78a1.69,1.69,0,0,0,1.47-2.52ZM22,26.62l2-3.51,2,3.51Z"
     id="path6"
     style="stroke:url(#linearGradient1756)" />
</svg>
