<?xml version="1.0" encoding="UTF-8" standalone="no"?>
<svg
   viewBox="0 0 48 48"
   version="1.1"
   id="svg20"
   sodipodi:docname="brave_beta.svg"
   inkscape:version="1.2.2 (b0a8486, 2022-12-01)"
   xmlns:inkscape="http://www.inkscape.org/namespaces/inkscape"
   xmlns:sodipodi="http://sodipodi.sourceforge.net/DTD/sodipodi-0.dtd"
   xmlns:xlink="http://www.w3.org/1999/xlink"
   xmlns="http://www.w3.org/2000/svg"
   xmlns:svg="http://www.w3.org/2000/svg">
  <sodipodi:namedview
     id="namedview22"
     pagecolor="#ffffff"
     bordercolor="#000000"
     borderopacity="0.25"
     inkscape:showpageshadow="2"
     inkscape:pageopacity="0.0"
     inkscape:pagecheckerboard="0"
     inkscape:deskcolor="#d1d1d1"
     showgrid="false"
     inkscape:zoom="24.188944"
     inkscape:cx="26.106968"
     inkscape:cy="34.705938"
     inkscape:window-width="1920"
     inkscape:window-height="1006"
     inkscape:window-x="0"
     inkscape:window-y="50"
     inkscape:window-maximized="1"
     inkscape:current-layer="svg20" />
  <defs
     id="defs4">
    <linearGradient
       inkscape:collect="always"
       id="linearGradient906">
      <stop
         style="stop-color:#ff2000;stop-opacity:1;"
         offset="0"
         id="stop902" />
      <stop
         style="stop-color:#ff5500;stop-opacity:1;"
         offset="1"
         id="stop904" />
    </linearGradient>
    <style
       id="style2">.a{fill:none;stroke:#fff;stroke-linecap:round;stroke-linejoin:round;}</style>
    <linearGradient
       inkscape:collect="always"
       xlink:href="#linearGradient906"
       id="linearGradient888"
       x1="30"
       y1="37.5"
       x2="45"
       y2="37.5"
       gradientUnits="userSpaceOnUse" />
    <linearGradient
       inkscape:collect="always"
       xlink:href="#linearGradient906"
       id="linearGradient892"
       x1="18.222166"
       y1="32.131149"
       x2="29.775534"
       y2="32.131149"
       gradientUnits="userSpaceOnUse" />
    <linearGradient
       inkscape:collect="always"
       xlink:href="#linearGradient906"
       id="linearGradient896"
       x1="15.1911"
       y1="18.793428"
       x2="32.689999"
       y2="18.793428"
       gradientUnits="userSpaceOnUse" />
    <linearGradient
       inkscape:collect="always"
       xlink:href="#linearGradient906"
       id="linearGradient898"
       x1="10.6971"
       y1="20.994551"
       x2="37.302898"
       y2="20.994551"
       gradientUnits="userSpaceOnUse" />
    <linearGradient
       inkscape:collect="always"
       xlink:href="#linearGradient906"
       id="linearGradient900"
       x1="6.8829023"
       y1="24"
       x2="41.116698"
       y2="24"
       gradientUnits="userSpaceOnUse" />
    <linearGradient
       inkscape:collect="always"
       xlink:href="#linearGradient906"
       id="linearGradient3300"
       x1="34.749794"
       y1="37.699322"
       x2="40.915993"
       y2="37.699322"
       gradientUnits="userSpaceOnUse"
       gradientTransform="translate(-0.05272618,-0.11188921)" />
  </defs>
  <path
     class="a"
     d="M37.12,30.5157c.9565-3.6563,3.4967-13.3311,3.4967-13.3311l-1.1827-3.3412.9166-2.2471s-1.1531-1.2419-2.5724-2.6611-4.4056-.5914-4.4056-.5914L29.9727,4.5H17.9977l-3.4,3.8734s-2.9863-.8279-4.4056.5913-2.5724,2.6612-2.5724,2.6612L8.536,13.873,7.3829,17.1846s3.43,12.9507,3.8142,14.5474c.7984,3.1046,1.3306,4.3169,3.5777,5.9136s6.298,4.3169,6.978,4.7308A5.2044,5.2044,0,0,0,24,43.5c.7392,0,1.5671-.71,2.2472-1.1236.4479-.285,2.5222-1.6777,4.5044-3.0291"
     id="path6"
     style="stroke:url(#linearGradient900)" />
  <path
     class="a"
     d="M18.7148,31.5164a19.367,19.367,0,0,1-2.846-3.7761,3.5831,3.5831,0,0,1,.3253-3.2229,1.4919,1.4919,0,0,0-.5914-1.7445c-.2956-.3252-2.72-2.8976-3.282-3.489s-1.1236-.8574-1.1236-2.0106,4.3761-6.4458,4.3761-6.4458,3.6959.71,4.1986.71a13.4221,13.4221,0,0,0,2.5724-.7391A5.96,5.96,0,0,1,24,10.4727l-1.6558.3253A5.96,5.96,0,0,1,24,10.4727a5.96,5.96,0,0,1,1.6558.3253,13.4241,13.4241,0,0,0,2.5724.7391c.5027,0,4.1986-.71,4.1986-.71s4.3761,5.2927,4.3761,6.4458-.5618,1.4193-1.1236,2.0106-2.9863,3.1638-3.282,3.489a1.4919,1.4919,0,0,0-.5914,1.7445,3.5831,3.5831,0,0,1,.3253,3.2229,19.367,19.367,0,0,1-2.846,3.7761"
     id="path8"
     style="stroke:url(#linearGradient898)" />
  <path
     class="a"
     d="M32.19,14.8192a14.0621,14.0621,0,0,0-3.7256-.0887,13.2634,13.2634,0,0,0-2.6611.8574c-.1182.207-.2365.207-.1182.9462.1182.71.8279,4.1987.887,4.82s.207,1.0348-.4731,1.1827a16.7966,16.7966,0,0,1-2.1584.4139,16.7945,16.7945,0,0,1-2.1585-.4139c-.65-.1479-.5322-.5618-.4731-1.1827s.7392-4.08.8871-4.82c.1182-.71.0295-.7392-.1183-.9462a12.6133,12.6133,0,0,0-2.6611-.8574,12.92,12.92,0,0,0-3.7256.0887"
     id="path10"
     style="stroke:url(#linearGradient896)" />
  <path
     class="a"
     d="M24,28.7456V22.95"
     id="path12"
     style="stroke:#ff3a00;stroke-opacity:1" />
  <path
     class="a"
     d="M29.1448,31.0815c.2661.1774.1183.5027-.1478.6505-.2366.1774-3.5777,2.75-3.8734,3.0455-.3253.2957-.7984.7392-1.1236.7392s-.7983-.4731-1.1236-.7392c-.3252-.2957-3.6368-2.8681-3.8734-3.0455s-.4139-.5027-.1478-.6505c.2661-.1774,1.1236-.5914,2.2767-1.2123A12.639,12.639,0,0,1,24,28.7456a12.639,12.639,0,0,1,2.8681,1.1236C28.0212,30.49,28.8491,30.9337,29.1448,31.0815Z"
     id="path14"
     style="stroke:url(#linearGradient892)" />
  <circle
     class="a"
     cx="37.5"
     cy="37.5"
     r="7"
     id="circle18"
     style="stroke:url(#linearGradient888)" />
  <path
     class="b"
     d="m 38.430167,37.587433 a 2,2 0 0 1 0,4 h -3.3 v -8 h 3.3 a 2,2 0 0 1 0,4 z"
     id="path2757"
     style="fill:none;stroke:url(#linearGradient3300);stroke-width:0.8662px;stroke-linecap:round;stroke-linejoin:round" />
</svg>
