<?xml version="1.0" encoding="UTF-8" standalone="no"?>
<svg
   viewBox="0 0 48 48"
   version="1.1"
   id="svg12538"
   sodipodi:docname="brawlstars.svg"
   inkscape:version="1.2.2 (b0a8486, 2022-12-01)"
   xmlns:inkscape="http://www.inkscape.org/namespaces/inkscape"
   xmlns:sodipodi="http://sodipodi.sourceforge.net/DTD/sodipodi-0.dtd"
   xmlns="http://www.w3.org/2000/svg"
   xmlns:svg="http://www.w3.org/2000/svg">
  <sodipodi:namedview
     id="namedview12540"
     pagecolor="#ffffff"
     bordercolor="#000000"
     borderopacity="0.25"
     inkscape:showpageshadow="2"
     inkscape:pageopacity="0.0"
     inkscape:pagecheckerboard="0"
     inkscape:deskcolor="#d1d1d1"
     showgrid="false"
     inkscape:zoom="17.104167"
     inkscape:cx="24"
     inkscape:cy="25.929354"
     inkscape:window-width="1920"
     inkscape:window-height="1006"
     inkscape:window-x="0"
     inkscape:window-y="50"
     inkscape:window-maximized="1"
     inkscape:current-layer="svg12538" />
  <defs
     id="defs12520">
    <style
       id="style12518">.a{fill:none;stroke:#000;stroke-linecap:round;stroke-linejoin:round;}</style>
  </defs>
  <path
     class="a"
     d="M10.47,33.9609c-9.6109-7.8546-6.3652-19.1445.9277-25.2132s17.395-3.24,17.395-3.24,10.1632,2.601,13.4447,11.5031S42.6845,37.3135,30.4339,39.31"
     id="path12522"
     style="stroke:#ffbe20;stroke-opacity:1" />
  <path
     class="a"
     d="M10.47,33.9609l-.7115,2.3056S8.94,38.3592,12.39,39.2127l6.8771,1.8428"
     id="path12524"
     style="stroke:#ffbe20;stroke-opacity:1" />
  <path
     class="a"
     d="M30.4339,39.31l-.5366,2.3524s-.3376,2.2215-3.7527,1.2355l-6.8771-1.8427"
     id="path12526"
     style="stroke:#ffbe20;stroke-opacity:1" />
  <path
     class="a"
     d="M23.5974,33.9336l-2.2043-.5907-2.2044-.5906,1.6137-1.6137,1.6137-1.6137.5907,2.2043Z"
     id="path12528"
     style="stroke:#ffbe20;stroke-opacity:1" />
  <circle
     class="a"
     cx="14.4502"
     cy="24.5728"
     r="5.1122"
     id="circle12530"
     style="stroke:#ffbe20;stroke-opacity:1" />
  <path
     class="a"
     d="M19.9006,17.86l2.3206,4.0192"
     id="path12532"
     style="stroke:#ffbe20;stroke-opacity:1" />
  <circle
     class="a"
     cx="31.6682"
     cy="29.1864"
     r="5.1122"
     id="circle12534"
     style="stroke:#ffbe20;stroke-opacity:1" />
  <path
     class="a"
     d="M30.3046,20.6474l-4.0193,2.32"
     id="path12536"
     style="stroke:#ffbe20;stroke-opacity:1" />
</svg>
