<?xml version="1.0" encoding="UTF-8" standalone="no"?>
<svg
   id="Layer_2"
   data-name="Layer 2"
   viewBox="0 0 48 48"
   version="1.1"
   sodipodi:docname="briar.svg"
   inkscape:version="1.2.2 (b0a8486, 2022-12-01)"
   xmlns:inkscape="http://www.inkscape.org/namespaces/inkscape"
   xmlns:sodipodi="http://sodipodi.sourceforge.net/DTD/sodipodi-0.dtd"
   xmlns="http://www.w3.org/2000/svg"
   xmlns:svg="http://www.w3.org/2000/svg">
  <sodipodi:namedview
     id="namedview23"
     pagecolor="#ffffff"
     bordercolor="#000000"
     borderopacity="0.25"
     inkscape:showpageshadow="2"
     inkscape:pageopacity="0.0"
     inkscape:pagecheckerboard="0"
     inkscape:deskcolor="#d1d1d1"
     showgrid="false"
     inkscape:zoom="17.104167"
     inkscape:cx="20.725944"
     inkscape:cy="24.058465"
     inkscape:window-width="1920"
     inkscape:window-height="1006"
     inkscape:window-x="0"
     inkscape:window-y="50"
     inkscape:window-maximized="1"
     inkscape:current-layer="Layer_2" />
  <defs
     id="defs4">
    <style
       id="style2">.cls-1{fill:none;stroke:#fff;stroke-linecap:round;stroke-linejoin:round;}</style>
  </defs>
  <path
     class="cls-1"
     d="M35.32,28.09V8.5a3,3,0,0,0-3-3H31.11a3,3,0,0,0-3,3V28.09Z"
     id="path6"
     style="stroke:#87c214;stroke-opacity:1" />
  <path
     class="cls-1"
     d="M28.11,35.31V39.5a3,3,0,0,0,3,3h1.21a3,3,0,0,0,3-3V35.31Z"
     id="path8"
     style="stroke:#87c214;stroke-opacity:1" />
  <path
     class="cls-1"
     d="M12.7,28.09H8.51a3,3,0,0,0-3,3v1.22a3,3,0,0,0,3,3H12.7Z"
     id="path10"
     style="stroke:#87c214;stroke-opacity:1" />
  <path
     class="cls-1"
     d="M39.51,28.09H19.92v7.22H39.51a3,3,0,0,0,3-3V31.09A3,3,0,0,0,39.51,28.09Z"
     id="path12"
     style="stroke:#87c214;stroke-opacity:1" />
  <path
     class="cls-1"
     d="M28.11,12.69H8.51a3,3,0,0,0-3,3v1.22a3,3,0,0,0,3,3h19.6Z"
     id="path14"
     style="stroke:#87c214;stroke-opacity:1" />
  <path
     class="cls-1"
     d="M39.51,12.69H35.32v7.22h4.19a3,3,0,0,0,3-3V15.69A3,3,0,0,0,39.51,12.69Z"
     id="path16"
     style="stroke:#87c214;stroke-opacity:1" />
  <path
     class="cls-1"
     d="M19.92,12.69V8.5a3,3,0,0,0-3-3H15.7a3,3,0,0,0-3,3v4.19Z"
     id="path18"
     style="stroke:#87c214;stroke-opacity:1" />
  <path
     class="cls-1"
     d="M12.7,19.91V39.5a3,3,0,0,0,3,3h1.22a3,3,0,0,0,3-3V19.91Z"
     id="path20"
     style="stroke:#87c214;stroke-opacity:1" />
</svg>
