<?xml version="1.0" encoding="UTF-8" standalone="no"?>
<svg
   id="Layer_2"
   data-name="Layer 2"
   viewBox="0 0 48 48"
   version="1.1"
   sodipodi:docname="calculator.svg"
   inkscape:version="1.2.2 (b0a8486, 2022-12-01)"
   xmlns:inkscape="http://www.inkscape.org/namespaces/inkscape"
   xmlns:sodipodi="http://sodipodi.sourceforge.net/DTD/sodipodi-0.dtd"
   xmlns="http://www.w3.org/2000/svg"
   xmlns:svg="http://www.w3.org/2000/svg">
  <sodipodi:namedview
     id="namedview7305"
     pagecolor="#ffffff"
     bordercolor="#000000"
     borderopacity="0.25"
     inkscape:showpageshadow="2"
     inkscape:pageopacity="0.0"
     inkscape:pagecheckerboard="0"
     inkscape:deskcolor="#d1d1d1"
     showgrid="false"
     inkscape:zoom="17.104167"
     inkscape:cx="24"
     inkscape:cy="24.058465"
     inkscape:window-width="1920"
     inkscape:window-height="1006"
     inkscape:window-x="0"
     inkscape:window-y="50"
     inkscape:window-maximized="1"
     inkscape:current-layer="Layer_2" />
  <defs
     id="defs7286">
    <style
       id="style7284">.cls-1{fill:none;stroke:#000;stroke-linecap:round;stroke-linejoin:round;}</style>
  </defs>
  <path
     class="cls-1"
     d="M27.89,26A1.94,1.94,0,0,0,26,27.89V40.55a1.94,1.94,0,0,0,1.94,2H40.55a2,2,0,0,0,2-2V27.89a1.94,1.94,0,0,0-2-1.94Z"
     id="path7288"
     style="stroke:#ff8000;stroke-opacity:1" />
  <path
     class="cls-1"
     d="M7.45,5.5a2,2,0,0,0-1.95,2V20.11a1.94,1.94,0,0,0,2,1.94H20.11a1.94,1.94,0,0,0,1.94-1.94V7.45A1.94,1.94,0,0,0,20.11,5.5Z"
     id="path7290"
     style="stroke:#ffffff;stroke-opacity:1" />
  <rect
     class="cls-1"
     x="25.95"
     y="5.5"
     width="16.55"
     height="16.55"
     rx="2.92"
     id="rect7292"
     style="stroke:#ffffff;stroke-opacity:1" />
  <rect
     class="cls-1"
     x="5.5"
     y="25.95"
     width="16.55"
     height="16.55"
     rx="1.95"
     id="rect7294"
     style="stroke:#ffffff;stroke-opacity:1" />
  <line
     class="cls-1"
     x1="13.78"
     y1="8.42"
     x2="13.78"
     y2="19.13"
     id="line7296"
     style="stroke:#ffffff;stroke-opacity:1" />
  <line
     class="cls-1"
     x1="8.42"
     y1="13.78"
     x2="19.13"
     y2="13.78"
     id="line7298"
     style="stroke:#ffffff;stroke-opacity:1" />
  <line
     class="cls-1"
     x1="28.87"
     y1="31.3"
     x2="39.58"
     y2="31.3"
     id="line7300"
     style="stroke:#ff8000;stroke-opacity:1" />
  <line
     class="cls-1"
     x1="28.87"
     y1="37.14"
     x2="39.58"
     y2="37.14"
     id="line7302"
     style="stroke:#ff8200;stroke-opacity:1" />
</svg>
