<?xml version="1.0" encoding="UTF-8" standalone="no"?>
<svg
   id="Layer_2"
   data-name="Layer 2"
   viewBox="0 0 48 48"
   version="1.1"
   sodipodi:docname="camera.svg"
   inkscape:version="1.2.2 (b0a8486, 2022-12-01)"
   xmlns:inkscape="http://www.inkscape.org/namespaces/inkscape"
   xmlns:sodipodi="http://sodipodi.sourceforge.net/DTD/sodipodi-0.dtd"
   xmlns:xlink="http://www.w3.org/1999/xlink"
   xmlns="http://www.w3.org/2000/svg"
   xmlns:svg="http://www.w3.org/2000/svg">
  <sodipodi:namedview
     id="namedview9"
     pagecolor="#ffffff"
     bordercolor="#000000"
     borderopacity="0.25"
     inkscape:showpageshadow="2"
     inkscape:pageopacity="0.0"
     inkscape:pagecheckerboard="0"
     inkscape:deskcolor="#d1d1d1"
     showgrid="false"
     inkscape:zoom="17.104167"
     inkscape:cx="20.725944"
     inkscape:cy="20.959805"
     inkscape:window-width="1920"
     inkscape:window-height="1006"
     inkscape:window-x="0"
     inkscape:window-y="50"
     inkscape:window-maximized="1"
     inkscape:current-layer="Layer_2" />
  <defs
     id="defs4">
    <linearGradient
       inkscape:collect="always"
       id="linearGradient2546">
      <stop
         style="stop-color:#7e7e7e;stop-opacity:1;"
         offset="0"
         id="stop2542" />
      <stop
         style="stop-color:#7e7e7e;stop-opacity:1;"
         offset="0.5"
         id="stop4002" />
      <stop
         style="stop-color:#a5a5a5;stop-opacity:1;"
         offset="0.5"
         id="stop2544" />
    </linearGradient>
    <style
       id="style2">.cls-1{fill:none;stroke:#fff;stroke-linecap:round;stroke-linejoin:round;}</style>
    <radialGradient
       inkscape:collect="always"
       xlink:href="#linearGradient2546"
       id="radialGradient2548"
       cx="23.757872"
       cy="27.3027"
       fx="23.757872"
       fy="27.3027"
       r="20"
       gradientTransform="matrix(0.99971236,0.02398346,-0.02338611,0.97481297,0.64533789,-0.74879693)"
       gradientUnits="userSpaceOnUse" />
  </defs>
  <path
     class="cls-1"
     d="M19.83,8.77l-2.77,2.84H6.29A1.79,1.79,0,0,0,4.5,13.4V36.62a1.8,1.8,0,0,0,1.79,1.8H41.71a1.8,1.8,0,0,0,1.79-1.8V13.4a1.79,1.79,0,0,0-1.79-1.79H30.94L28.17,8.77Zm18.93,5.74a1.84,1.84,0,1,1,0,3.68A1.84,1.84,0,0,1,38.76,14.51ZM24,17.71a8.51,8.51,0,1,1-8.51,8.51A8.51,8.51,0,0,1,24,17.71Z"
     id="path6"
     style="stroke:url(#radialGradient2548);stroke-opacity:1" />
</svg>
