<?xml version="1.0" encoding="UTF-8" standalone="no"?>
<svg
   id="Layer_2"
   data-name="Layer 2"
   viewBox="0 0 48 48"
   version="1.1"
   sodipodi:docname="clashroyale.svg"
   inkscape:version="1.2.2 (b0a8486, 2022-12-01)"
   xmlns:inkscape="http://www.inkscape.org/namespaces/inkscape"
   xmlns:sodipodi="http://sodipodi.sourceforge.net/DTD/sodipodi-0.dtd"
   xmlns:xlink="http://www.w3.org/1999/xlink"
   xmlns="http://www.w3.org/2000/svg"
   xmlns:svg="http://www.w3.org/2000/svg">
  <sodipodi:namedview
     id="namedview20071"
     pagecolor="#ffffff"
     bordercolor="#000000"
     borderopacity="0.25"
     inkscape:showpageshadow="2"
     inkscape:pageopacity="0.0"
     inkscape:pagecheckerboard="0"
     inkscape:deskcolor="#d1d1d1"
     showgrid="false"
     inkscape:zoom="12.094472"
     inkscape:cx="22.282907"
     inkscape:cy="27.161169"
     inkscape:window-width="1920"
     inkscape:window-height="1006"
     inkscape:window-x="0"
     inkscape:window-y="50"
     inkscape:window-maximized="1"
     inkscape:current-layer="Layer_2" />
  <defs
     id="defs20066">
    <linearGradient
       inkscape:collect="always"
       id="linearGradient21670">
      <stop
         style="stop-color:#734001;stop-opacity:1;"
         offset="0"
         id="stop21666" />
      <stop
         style="stop-color:#734001;stop-opacity:1;"
         offset="0.5"
         id="stop23298" />
      <stop
         style="stop-color:#ffd400;stop-opacity:1;"
         offset="0.5"
         id="stop21668" />
    </linearGradient>
    <style
       id="style20064">.cls-1{fill:none;stroke:#fff;stroke-linecap:round;stroke-linejoin:round;}</style>
    <linearGradient
       inkscape:collect="always"
       xlink:href="#linearGradient21670"
       id="linearGradient21672"
       x1="22.789661"
       y1="39.964115"
       x2="22.850243"
       y2="5.4952598"
       gradientUnits="userSpaceOnUse" />
  </defs>
  <path
     class="cls-1"
     d="M5.76,8.65h9.6v4.17H19.2V8.65h9.6v4.17h3.84V8.65h9.6V22.14H5.76V8.65ZM21.2,30.43A3.14,3.14,0,0,1,24,33.66a3.14,3.14,0,0,1,2.8-3.23,5.45,5.45,0,0,1,3.87,1.7c5.65,4.4,9.74,3.61,12.83,1.58a7.47,7.47,0,0,1-6.17,5.49c-8.2.83-11.63-1.92-13-4.07A3.12,3.12,0,0,1,24,33.66a3.12,3.12,0,0,1-.35,1.47c-1.35,2.15-4.78,4.9-13,4.07A7.47,7.47,0,0,1,4.5,33.71c3.09,2,7.18,2.82,12.83-1.58a5.45,5.45,0,0,1,3.87-1.7Z"
     id="path20068"
     style="stroke:url(#linearGradient21672);stroke-opacity:1" />
</svg>
