<?xml version="1.0" encoding="UTF-8" standalone="no"?>
<svg
   viewBox="0 0 48 48"
   version="1.1"
   id="svg8"
   sodipodi:docname="dolphinemulator.svg"
   inkscape:version="1.2.2 (b0a8486, 2022-12-01)"
   xmlns:inkscape="http://www.inkscape.org/namespaces/inkscape"
   xmlns:sodipodi="http://sodipodi.sourceforge.net/DTD/sodipodi-0.dtd"
   xmlns="http://www.w3.org/2000/svg"
   xmlns:svg="http://www.w3.org/2000/svg">
  <sodipodi:namedview
     id="namedview10"
     pagecolor="#ffffff"
     bordercolor="#000000"
     borderopacity="0.25"
     inkscape:showpageshadow="2"
     inkscape:pageopacity="0.0"
     inkscape:pagecheckerboard="0"
     inkscape:deskcolor="#d1d1d1"
     showgrid="false"
     inkscape:zoom="17.104167"
     inkscape:cx="20.725944"
     inkscape:cy="24.058465"
     inkscape:window-width="1920"
     inkscape:window-height="1006"
     inkscape:window-x="0"
     inkscape:window-y="50"
     inkscape:window-maximized="1"
     inkscape:current-layer="svg8" />
  <defs
     id="defs4">
    <style
       id="style2">.a{fill:none;stroke:#fff;stroke-linecap:round;stroke-linejoin:round;}</style>
  </defs>
  <path
     class="a"
     d="M43.46,34.36c-4-10.1-7.9-13.5-11.6-16.4-1.8-1.4-.5-3.2,2.7-4.1-2.2-.3-4.9-.7-8.3,1.7-3.9-1.8-18.7-4.1-20.3,6.4l-1.2,1.6c-.6,1.9.1,1.7,1.4,1s8-2.5,9.9-1.5c1.5,3.5,3.5,4.1,8.3,4.8-1.4-.8-3.4-1.4-3.9-4.4,3.1-.1,10.3,2.3,13.3,5.2-1-2.4-10.8-10-23.2-7-.4-2.3,4.3-5.1,9.8-4.7,5.3.4,10.4,1.8,14.1,5.1a34.4,34.4,0,0,1,9,12.3Z"
     id="path6"
     style="stroke:#33beff;stroke-opacity:1" />
</svg>
