<?xml version="1.0" encoding="UTF-8" standalone="no"?>
<svg
   id="Layer_2"
   data-name="Layer 2"
   viewBox="0 0 48 48"
   version="1.1"
   sodipodi:docname="duckduckgo.svg"
   inkscape:version="1.2.2 (b0a8486, 2022-12-01)"
   xmlns:inkscape="http://www.inkscape.org/namespaces/inkscape"
   xmlns:sodipodi="http://sodipodi.sourceforge.net/DTD/sodipodi-0.dtd"
   xmlns="http://www.w3.org/2000/svg"
   xmlns:svg="http://www.w3.org/2000/svg">
  <sodipodi:namedview
     id="namedview17"
     pagecolor="#808080"
     bordercolor="#000000"
     borderopacity="0.24705882"
     inkscape:showpageshadow="2"
     inkscape:pageopacity="0"
     inkscape:pagecheckerboard="0"
     inkscape:deskcolor="#969696"
     showgrid="false"
     showborder="true"
     inkscape:zoom="12.094472"
     inkscape:cx="15.048197"
     inkscape:cy="20.050482"
     inkscape:window-width="1920"
     inkscape:window-height="1006"
     inkscape:window-x="0"
     inkscape:window-y="50"
     inkscape:window-maximized="1"
     inkscape:current-layer="Layer_2" />
  <defs
     id="defs4">
    <style
       id="style2">.cls-1{fill:none;stroke:#000;stroke-linecap:round;stroke-linejoin:round;}</style>
  </defs>
  <circle
     class="cls-1"
     cx="17.7"
     cy="20.51"
     r="1.63"
     id="circle6"
     style="stroke:#ffffff;stroke-opacity:1" />
  <circle
     class="cls-1"
     cx="27.38"
     cy="19.51"
     r="1.46"
     id="circle8"
     style="stroke:#ffffff;stroke-opacity:1" />
  <path
     class="cls-1"
     d="M24,2h0a22,22,0,0,0-7.5,42.65,253.51,253.51,0,0,1-5-24.88c0-5.63,1.5-8.66,7.72-9.62a17.81,17.81,0,0,0-6.6-.6c.38-1.27,1.55-1.21,2.28-1.42.32-.22-1.93-.84-1.85-.8a4.56,4.56,0,0,1,2.89-.65c3.4.15,7.81,2.38,8.22,3.69,6.78.79,8.15,12.13,7.1,13,.69.34,4-1,6.58-1.9C40,20.76,43.1,22.56,39.4,24c0,0-7.15,3.48-10.63,2.74a1.39,1.39,0,0,0-1.95,1.06c.84,2.74,4.28,2.13,6.31,1.89L37.06,29c6.22-1.31-1.55,6.62-12.71,1.2a17.38,17.38,0,0,0,1.57,7.93c.67-.06,1.22,0,1.28.19a2.49,2.49,0,0,1,.13.49c1.1-.8,4-2.86,4.75-2.69.92.22,1.1,6.86.31,7.08-.59.21-3.3-.74-4.73-1.29l.3.65h0c.45.93.89,1.87,1.3,2.81A22,22,0,0,0,24,2Z"
     id="path10"
     style="stroke:#df5730;stroke-opacity:1" />
  <path
     class="cls-1"
     d="M25.92,38.11a4.17,4.17,0,0,0-2.32.72c-1.76-.84-5.28-2.46-5.32-1.45-.13,1.32,0,6.81.7,7.21.53.3,3.52-1.32,5-2.16H24A5.67,5.67,0,0,0,27.29,42a.41.41,0,0,0,.17-.22l.2.07"
     id="path12"
     style="stroke:#67be45;stroke-opacity:1" />
  <path
     class="cls-1"
     d="M27.66,41.89c1.43.55,4.14,1.5,4.73,1.29.79-.22.61-6.86-.31-7.08-.75-.17-3.65,1.89-4.75,2.69a2.49,2.49,0,0,0-.13-.49c-.06-.19-.61-.25-1.28-.19"
     id="path14"
     inkscape:label="path14"
     style="stroke:#67be45;stroke-opacity:1" />
</svg>
