<?xml version="1.0" encoding="UTF-8" standalone="no"?>
<svg
   viewBox="0 0 48 48"
   version="1.1"
   id="svg12"
   sodipodi:docname="facebook.svg"
   inkscape:version="1.2.2 (b0a8486, 2022-12-01)"
   xmlns:inkscape="http://www.inkscape.org/namespaces/inkscape"
   xmlns:sodipodi="http://sodipodi.sourceforge.net/DTD/sodipodi-0.dtd"
   xmlns:xlink="http://www.w3.org/1999/xlink"
   xmlns="http://www.w3.org/2000/svg"
   xmlns:svg="http://www.w3.org/2000/svg">
  <sodipodi:namedview
     id="namedview14"
     pagecolor="#ffffff"
     bordercolor="#000000"
     borderopacity="0.25"
     inkscape:showpageshadow="2"
     inkscape:pageopacity="0.0"
     inkscape:pagecheckerboard="0"
     inkscape:deskcolor="#d1d1d1"
     showgrid="false"
     inkscape:zoom="17.104167"
     inkscape:cx="20.725944"
     inkscape:cy="24.058465"
     inkscape:window-width="1920"
     inkscape:window-height="1006"
     inkscape:window-x="0"
     inkscape:window-y="50"
     inkscape:window-maximized="1"
     inkscape:current-layer="svg12" />
  <defs
     id="defs4">
    <linearGradient
       inkscape:collect="always"
       id="linearGradient879">
      <stop
         style="stop-color:#17a9fd;stop-opacity:1;"
         offset="0"
         id="stop875" />
      <stop
         style="stop-color:#0165e1;stop-opacity:1;"
         offset="1"
         id="stop877" />
    </linearGradient>
    <style
       id="style2">.a{fill:none;stroke:#fff;stroke-linecap:round;stroke-linejoin:round;}</style>
    <linearGradient
       inkscape:collect="always"
       xlink:href="#linearGradient879"
       id="linearGradient881"
       x1="24.465546"
       y1="5.3534131"
       x2="24.580212"
       y2="42.650688"
       gradientUnits="userSpaceOnUse" />
  </defs>
  <path
     class="a"
     d="M24,42.5V18.57a5.07,5.07,0,0,1,5.08-5.07h0c2.49,0,4.05.74,5.12,2.12"
     id="path6" />
  <line
     class="a"
     x1="19.7"
     y1="23.29"
     x2="29.85"
     y2="23.29"
     id="line8" />
  <path
     class="a"
     d="M7.48,5.5a2,2,0,0,0-2,2h0v33a2,2,0,0,0,2,2H40.52a2,2,0,0,0,2-2h0v-33a2,2,0,0,0-2-2H7.48Z"
     id="path10"
     style="stroke:url(#linearGradient881);stroke-opacity:1" />
</svg>
