<?xml version="1.0" encoding="UTF-8" standalone="no"?>
<svg
   id="Layer_2"
   data-name="Layer 2"
   viewBox="0 0 48 48"
   version="1.1"
   sodipodi:docname="gallery.svg"
   inkscape:version="1.2.2 (b0a8486, 2022-12-01)"
   xmlns:inkscape="http://www.inkscape.org/namespaces/inkscape"
   xmlns:sodipodi="http://sodipodi.sourceforge.net/DTD/sodipodi-0.dtd"
   xmlns:xlink="http://www.w3.org/1999/xlink"
   xmlns="http://www.w3.org/2000/svg"
   xmlns:svg="http://www.w3.org/2000/svg">
  <sodipodi:namedview
     id="namedview1596"
     pagecolor="#ffffff"
     bordercolor="#000000"
     borderopacity="0.25"
     inkscape:showpageshadow="2"
     inkscape:pageopacity="0.0"
     inkscape:pagecheckerboard="0"
     inkscape:deskcolor="#d1d1d1"
     showgrid="false"
     inkscape:zoom="17.104167"
     inkscape:cx="35.693057"
     inkscape:cy="30.840438"
     inkscape:window-width="1920"
     inkscape:window-height="1006"
     inkscape:window-x="0"
     inkscape:window-y="50"
     inkscape:window-maximized="1"
     inkscape:current-layer="Layer_2" />
  <defs
     id="defs1589">
    <linearGradient
       inkscape:collect="always"
       id="linearGradient3923">
      <stop
         style="stop-color:#fdd300;stop-opacity:1;"
         offset="0"
         id="stop3919" />
      <stop
         style="stop-color:#fdd300;stop-opacity:1;"
         offset="0.27241984"
         id="stop4082" />
      <stop
         style="stop-color:#6dcc00;stop-opacity:1;"
         offset="0.32247198"
         id="stop3921" />
    </linearGradient>
    <style
       id="style1587">.cls-1{fill:none;stroke:#000;stroke-linecap:round;stroke-linejoin:round;}</style>
    <linearGradient
       inkscape:collect="always"
       xlink:href="#linearGradient3923"
       id="linearGradient3925"
       x1="35.206535"
       y1="13.896243"
       x2="9.0262232"
       y2="35.425354"
       gradientUnits="userSpaceOnUse" />
  </defs>
  <path
     class="cls-1"
     d="M7.48,5.5a2,2,0,0,0-2,2h0v33a2,2,0,0,0,2,2H40.52a2,2,0,0,0,2-2h0v-33a2,2,0,0,0-2-2H7.48Z"
     id="path1591"
     style="stroke:#0080ff;stroke-opacity:1" />
  <path
     class="cls-1"
     d="M31.32,12.12a4.47,4.47,0,1,1-4.47,4.47A4.47,4.47,0,0,1,31.32,12.12ZM20,21l7.22,7.22a.7.7,0,0,0,1,0l1.38-1.38a.71.71,0,0,1,1,0l7.81,7.81a.7.7,0,0,1-.5,1.2H10.08a.7.7,0,0,1-.58-1.1L19,21.13A.7.7,0,0,1,20,21Z"
     id="path1593"
     style="stroke:url(#linearGradient3925)" />
</svg>
