<?xml version="1.0" encoding="UTF-8" standalone="no"?>
<svg
   viewBox="0 0 48 48"
   version="1.1"
   id="svg8"
   sodipodi:docname="google_playstore.svg"
   inkscape:version="1.2.2 (b0a8486, 2022-12-01)"
   xmlns:inkscape="http://www.inkscape.org/namespaces/inkscape"
   xmlns:sodipodi="http://sodipodi.sourceforge.net/DTD/sodipodi-0.dtd"
   xmlns:xlink="http://www.w3.org/1999/xlink"
   xmlns="http://www.w3.org/2000/svg"
   xmlns:svg="http://www.w3.org/2000/svg">
  <sodipodi:namedview
     id="namedview10"
     pagecolor="#ffffff"
     bordercolor="#000000"
     borderopacity="0.25"
     inkscape:showpageshadow="2"
     inkscape:pageopacity="0.0"
     inkscape:pagecheckerboard="0"
     inkscape:deskcolor="#d1d1d1"
     showgrid="false"
     inkscape:zoom="17.104167"
     inkscape:cx="18.387333"
     inkscape:cy="24.058465"
     inkscape:window-width="1920"
     inkscape:window-height="1006"
     inkscape:window-x="0"
     inkscape:window-y="50"
     inkscape:window-maximized="1"
     inkscape:current-layer="svg8" />
  <defs
     id="defs4">
    <linearGradient
       inkscape:collect="always"
       id="linearGradient3148">
      <stop
         style="stop-color:#00c9ff;stop-opacity:1;"
         offset="0"
         id="stop3144" />
      <stop
         style="stop-color:#00c9ff;stop-opacity:1;"
         offset="0.24506821"
         id="stop3878" />
      <stop
         style="stop-color:#00f076;stop-opacity:1;"
         offset="0.24506821"
         id="stop3880" />
      <stop
         style="stop-color:#00f076;stop-opacity:1;"
         offset="0.49960855"
         id="stop3882" />
      <stop
         style="stop-color:#f53349;stop-opacity:1;"
         offset="0.49960855"
         id="stop3884" />
      <stop
         style="stop-color:#f53349;stop-opacity:1;"
         offset="0.75274825"
         id="stop5338" />
      <stop
         style="stop-color:#ffcc00;stop-opacity:1;"
         offset="0.75274825"
         id="stop3146" />
    </linearGradient>
    <style
       id="style2">.a{fill:none;stroke:#fff;stroke-linecap:round;stroke-linejoin:round;}</style>
    <linearGradient
       inkscape:collect="always"
       xlink:href="#linearGradient3148"
       id="linearGradient3150"
       x1="6.427465"
       y1="24.238514"
       x2="41.574898"
       y2="24.105116"
       gradientUnits="userSpaceOnUse" />
  </defs>
  <path
     class="a"
     d="M9.3,5.52a7,7,0,0,1,2,.76L32.52,18l-5.87,6L7.68,5.9A2.46,2.46,0,0,1,9.3,5.52ZM7.68,5.9l19,18.1L7.7,42.07c-.7-.56-1.07-1.69-1.07-3.36V9.29c0-1.67.36-2.82,1-3.38ZM32.52,18l7,3.87c2.49,1.38,2.49,2.84,0,4.22l-7,3.87-5.87-6,5.87-6Zm0,12L11.34,41.72c-1.16.64-2.72,1.19-3.64.35L26.65,24Z"
     id="path6"
     style="stroke:url(#linearGradient3150);stroke-opacity:1" />
</svg>
