<?xml version="1.0" encoding="UTF-8" standalone="no"?>
<svg
   id="Layer_2"
   data-name="Layer 2"
   viewBox="0 0 48 48"
   version="1.1"
   sodipodi:docname="google_photos.svg"
   inkscape:version="1.2.2 (b0a8486, 2022-12-01)"
   xmlns:inkscape="http://www.inkscape.org/namespaces/inkscape"
   xmlns:sodipodi="http://sodipodi.sourceforge.net/DTD/sodipodi-0.dtd"
   xmlns="http://www.w3.org/2000/svg"
   xmlns:svg="http://www.w3.org/2000/svg">
  <sodipodi:namedview
     id="namedview15"
     pagecolor="#ffffff"
     bordercolor="#000000"
     borderopacity="0.25"
     inkscape:showpageshadow="2"
     inkscape:pageopacity="0.0"
     inkscape:pagecheckerboard="0"
     inkscape:deskcolor="#d1d1d1"
     showgrid="false"
     inkscape:zoom="17.104167"
     inkscape:cx="20.725944"
     inkscape:cy="24.058465"
     inkscape:window-width="1920"
     inkscape:window-height="1006"
     inkscape:window-x="0"
     inkscape:window-y="50"
     inkscape:window-maximized="1"
     inkscape:current-layer="Layer_2" />
  <defs
     id="defs4">
    <style
       id="style2">.cls-1{fill:none;stroke:#fff;stroke-linecap:round;stroke-linejoin:round;}</style>
  </defs>
  <path
     class="cls-1"
     d="M14.75,13.51h0A9.25,9.25,0,0,1,24,22.76V24a0,0,0,0,1,0,0H6.74A1.24,1.24,0,0,1,5.5,22.76v0A9.25,9.25,0,0,1,14.75,13.51Z"
     id="path6"
     style="stroke:#f4b400;stroke-opacity:1" />
  <path
     class="cls-1"
     d="m 34.052103,35.157741 v 0 a 9.25,9.25 0 0 1 -9.25,-9.25 v -1.24 h 17.26 a 1.24,1.24 0 0 1 1.24,1.24 v 0 a 9.25,9.25 0 0 1 -9.25,9.25 z"
     id="path8"
     style="stroke:#4285f4;stroke-opacity:1" />
  <path
     class="cls-1"
     d="m 13.3625,33.996971 v 0 a 9.25,9.25 0 0 1 9.25,-9.25 h 1.25 v 17.25 a 1.24,1.24 0 0 1 -1.25,1.25 v 0 a 9.25,9.25 0 0 1 -9.25,-9.25 z"
     id="path10"
     style="stroke:#0f9d58;stroke-opacity:1" />
  <path
     class="cls-1"
     d="m 35.361089,14.64163 v 0 a 9.25,9.25 0 0 1 -9.25,9.25 h -1.25 V 6.6316301 a 1.24,1.24 0 0 1 1.25,-1.24 v 0 a 9.25,9.25 0 0 1 9.25,9.2499999 z"
     id="path12"
     style="stroke:#db4437;stroke-opacity:1" />
</svg>
