<?xml version="1.0" encoding="UTF-8" standalone="no"?>
<svg
   viewBox="0 0 48 48"
   version="1.1"
   id="svg16"
   sodipodi:docname="google_tv.svg"
   inkscape:version="1.2.2 (b0a8486, 2022-12-01)"
   xmlns:inkscape="http://www.inkscape.org/namespaces/inkscape"
   xmlns:sodipodi="http://sodipodi.sourceforge.net/DTD/sodipodi-0.dtd"
   xmlns:xlink="http://www.w3.org/1999/xlink"
   xmlns="http://www.w3.org/2000/svg"
   xmlns:svg="http://www.w3.org/2000/svg">
  <sodipodi:namedview
     id="namedview18"
     pagecolor="#ffffff"
     bordercolor="#000000"
     borderopacity="0.25"
     inkscape:showpageshadow="2"
     inkscape:pageopacity="0.0"
     inkscape:pagecheckerboard="0"
     inkscape:deskcolor="#d1d1d1"
     showgrid="false"
     inkscape:zoom="17.104167"
     inkscape:cx="20.725944"
     inkscape:cy="24.058465"
     inkscape:window-width="1920"
     inkscape:window-height="1006"
     inkscape:window-x="0"
     inkscape:window-y="50"
     inkscape:window-maximized="1"
     inkscape:current-layer="svg16" />
  <defs
     id="defs4">
    <linearGradient
       inkscape:collect="always"
       id="linearGradient882">
      <stop
         style="stop-color:#00ac47;stop-opacity:1;"
         offset="0"
         id="stop878" />
      <stop
         style="stop-color:#00ac47;stop-opacity:1;"
         offset="0.24722207"
         id="stop886" />
      <stop
         style="stop-color:#ffba00;stop-opacity:1;"
         offset="0.24722207"
         id="stop888" />
      <stop
         style="stop-color:#ffba00;stop-opacity:1;"
         offset="0.4996286"
         id="stop890" />
      <stop
         style="stop-color:#e94235;stop-opacity:1;"
         offset="0.4996286"
         id="stop2344" />
      <stop
         style="stop-color:#e94235;stop-opacity:1;"
         offset="0.75275606"
         id="stop2346" />
      <stop
         style="stop-color:#2684fc;stop-opacity:1;"
         offset="0.75275606"
         id="stop880" />
    </linearGradient>
    <style
       id="style2">.a{fill:none;stroke:#fff;stroke-linecap:round;stroke-linejoin:round;}</style>
    <linearGradient
       inkscape:collect="always"
       xlink:href="#linearGradient882"
       id="linearGradient884"
       x1="4.125"
       y1="24"
       x2="43.8749"
       y2="24"
       gradientUnits="userSpaceOnUse" />
  </defs>
  <path
     class="a"
     d="M38.78,39.5H9.22A4.569,4.569,0,0,1,4.625,34.9684V13.0316A4.569,4.569,0,0,1,9.22,8.5H38.78a4.569,4.569,0,0,1,4.5949,4.5316V34.9684A4.569,4.569,0,0,1,38.78,39.5ZM10.4375,33.6875h27.125V14.3125H10.4375Z"
     id="path6"
     style="stroke:url(#linearGradient884);stroke-opacity:1" />
  <path
     class="a"
     d="M43.375,17.2188a2.9063,2.9063,0,0,0-2.9062-2.9063H37.1776"
     id="path8"
     style="stroke:#2684fc;stroke-opacity:1" />
  <path
     class="a"
     d="M34.6562,39.5a2.9063,2.9063,0,0,0,2.9063-2.9062V33.3026"
     id="path10"
     style="stroke:#2684fc;stroke-opacity:1" />
  <path
     class="a"
     d="M4.625,30.7812a2.9063,2.9063,0,0,0,2.9062,2.9063h3.2912"
     id="path12"
     style="stroke:#00ac47;stroke-opacity:1" />
  <path
     class="a"
     d="M13.3438,8.5a2.9063,2.9063,0,0,0-2.9063,2.9062v3.2912"
     id="path14"
     style="stroke:#00ac47;stroke-opacity:1" />
</svg>
