<?xml version="1.0" encoding="UTF-8" standalone="no"?>
<svg
   id="Layer_2"
   data-name="Layer 2"
   viewBox="0 0 48 48"
   version="1.1"
   sodipodi:docname="magisk.svg"
   inkscape:version="1.2.2 (b0a8486, 2022-12-01)"
   xmlns:inkscape="http://www.inkscape.org/namespaces/inkscape"
   xmlns:sodipodi="http://sodipodi.sourceforge.net/DTD/sodipodi-0.dtd"
   xmlns:xlink="http://www.w3.org/1999/xlink"
   xmlns="http://www.w3.org/2000/svg"
   xmlns:svg="http://www.w3.org/2000/svg">
  <sodipodi:namedview
     id="namedview5123"
     pagecolor="#ffffff"
     bordercolor="#000000"
     borderopacity="0.25"
     inkscape:showpageshadow="2"
     inkscape:pageopacity="0.0"
     inkscape:pagecheckerboard="0"
     inkscape:deskcolor="#d1d1d1"
     showgrid="false"
     inkscape:zoom="12.094472"
     inkscape:cx="11.616877"
     inkscape:cy="27.409216"
     inkscape:window-width="1920"
     inkscape:window-height="1006"
     inkscape:window-x="0"
     inkscape:window-y="50"
     inkscape:window-maximized="1"
     inkscape:current-layer="Layer_2" />
  <defs
     id="defs5118">
    <linearGradient
       inkscape:collect="always"
       id="linearGradient15897">
      <stop
         style="stop-color:#3545aa;stop-opacity:1;"
         offset="0.30394235"
         id="stop15907" />
      <stop
         style="stop-color:#2c2c2c;stop-opacity:1;"
         offset="0.51387388"
         id="stop29168" />
      <stop
         style="stop-color:#2c2c2a;stop-opacity:0.81176472;"
         offset="0.72380543"
         id="stop21717" />
    </linearGradient>
    <style
       id="style5116">.cls-1{fill:none;stroke:#000;stroke-linecap:round;stroke-linejoin:round;}</style>
    <linearGradient
       inkscape:collect="always"
       xlink:href="#linearGradient15897"
       id="linearGradient15899"
       x1="24.047468"
       y1="11.438676"
       x2="24.056175"
       y2="20.688269"
       gradientUnits="userSpaceOnUse" />
  </defs>
  <path
     class="cls-1"
     d="M8,5.48,9,7.13c1.06,1.76,4.82,2.85,5.68,3a12.12,12.12,0,0,1,2.23.47c3.5,1.18,3.18,2.25,2.38,3.48-1,1.49-3.63,1.39-5.77.7s-3.63-3.22-4.2-4.35A11.38,11.38,0,0,1,8,5.48ZM40,5.48a11.42,11.42,0,0,1-1.32,4.9c-.57,1.14-2.07,3.68-4.2,4.36s-4.81.79-5.77-.7c-.8-1.22-1.12-2.3,2.38-3.48a12.1,12.1,0,0,1,2.23-.46C34.22,10,38,8.89,39,7.14l1-1.66ZM20.64,18.17c1.84.21,2,.69,2.38,2a1,1,0,0,1-.93,1.33c-2.05.32-2.32,1.1-3.46,2.32a7.32,7.32,0,0,1-7.36,2.55C7.05,25.6,4.5,19.42,4.5,19.42c3.27,4.63,5.75,4.88,7.91,4.59a6.9,6.9,0,0,0,4.33-3c.77-1,2.05-3,3.89-2.82Zm6.72,0C29.2,18,30.48,20,31.25,21s2.18,2.73,4.34,3,4.64,0,7.91-4.59c0,0-2.55,6.18-6.77,6.9a7.31,7.31,0,0,1-7.36-2.54c-1.14-1.23-1.41-2-3.46-2.32A1,1,0,0,1,25,20.13c.35-1.28.55-1.76,2.39-2Zm-6.13,5.59C21.87,25,24,25,24,25s2.12-.05,2.77-1.27a73.68,73.68,0,0,1,0,8.41C26.45,34.94,24,42.52,24,42.52s-2.46-7.58-2.77-10.35A73.68,73.68,0,0,1,21.23,23.76Z"
     id="path5120"
     style="stroke:url(#linearGradient15899);stroke-opacity:1" />
</svg>
