<?xml version="1.0" encoding="UTF-8" standalone="no"?>
<svg
   viewBox="0 0 48 48"
   version="1.1"
   id="svg1952"
   sodipodi:docname="messaging.svg"
   inkscape:version="1.2.2 (b0a8486, 2022-12-01)"
   xmlns:inkscape="http://www.inkscape.org/namespaces/inkscape"
   xmlns:sodipodi="http://sodipodi.sourceforge.net/DTD/sodipodi-0.dtd"
   xmlns="http://www.w3.org/2000/svg"
   xmlns:svg="http://www.w3.org/2000/svg">
  <sodipodi:namedview
     id="namedview1954"
     pagecolor="#ffffff"
     bordercolor="#000000"
     borderopacity="0.25"
     inkscape:showpageshadow="2"
     inkscape:pageopacity="0.0"
     inkscape:pagecheckerboard="0"
     inkscape:deskcolor="#d1d1d1"
     showgrid="false"
     inkscape:zoom="17.104167"
     inkscape:cx="24"
     inkscape:cy="24.058465"
     inkscape:window-width="1920"
     inkscape:window-height="1006"
     inkscape:window-x="0"
     inkscape:window-y="50"
     inkscape:window-maximized="1"
     inkscape:current-layer="svg1952" />
  <defs
     id="defs1942">
    <style
       id="style1940">.a{fill:none;stroke:#000;stroke-linecap:round;stroke-linejoin:round;}</style>
  </defs>
  <path
     class="a"
     d="M16.1,6.33a2.56,2.56,0,0,0-2.57,2.56v7.66h-9L8.8,24v15.1a2.56,2.56,0,0,0,2.56,2.58H31.45A2.57,2.57,0,0,0,34,39.11V31.45h2.6a2.55,2.55,0,0,0,2.57-2.56h0V13.77l4.3-7.44H16.1ZM34,28.51V19.12a2.57,2.57,0,0,0-2.56-2.57h-15M17,24.2a1.87,1.87,0,0,1,0,3.74h0a1.87,1.87,0,0,1,0-3.74Zm8.75,0A1.87,1.87,0,1,1,24,26a1.87,1.87,0,0,1,1.83-1.83ZM15,31.36H27.84a6.7,6.7,0,0,1-12.85,0Z"
     id="path1944"
     style="stroke:#00aaff;stroke-opacity:1" />
  <line
     class="a"
     x1="13.53"
     y1="16.55"
     x2="16.46"
     y2="16.55"
     id="line1946"
     style="stroke:#02abff;stroke-opacity:1" />
  <line
     class="a"
     x1="34.03"
     y1="28.51"
     x2="34.03"
     y2="31.45"
     id="line1948"
     style="stroke:#00a8fd;stroke-opacity:1" />
  <line
     class="a"
     x1="18.89"
     y1="12.91"
     x2="34.22"
     y2="12.91"
     id="line1950"
     style="stroke:#ffffff;stroke-opacity:1" />
</svg>
