<?xml version="1.0" encoding="UTF-8" standalone="no"?>
<svg
   id="Layer_2"
   data-name="Layer 2"
   viewBox="0 0 48 48"
   version="1.1"
   sodipodi:docname="microsoftteams.svg"
   inkscape:version="1.2.2 (b0a8486, 2022-12-01)"
   xmlns:inkscape="http://www.inkscape.org/namespaces/inkscape"
   xmlns:sodipodi="http://sodipodi.sourceforge.net/DTD/sodipodi-0.dtd"
   xmlns="http://www.w3.org/2000/svg"
   xmlns:svg="http://www.w3.org/2000/svg">
  <sodipodi:namedview
     id="namedview21"
     pagecolor="#ffffff"
     bordercolor="#000000"
     borderopacity="0.25"
     inkscape:showpageshadow="2"
     inkscape:pageopacity="0.0"
     inkscape:pagecheckerboard="0"
     inkscape:deskcolor="#d1d1d1"
     showgrid="false"
     inkscape:zoom="17.104167"
     inkscape:cx="20.725944"
     inkscape:cy="24.058465"
     inkscape:window-width="1920"
     inkscape:window-height="1006"
     inkscape:window-x="0"
     inkscape:window-y="50"
     inkscape:window-maximized="1"
     inkscape:current-layer="Layer_2" />
  <defs
     id="defs4">
    <style
       id="style2">.cls-1,.cls-2{fill:none;stroke:#fff;stroke-linejoin:round;}.cls-2{stroke-linecap:round;}</style>
  </defs>
  <circle
     class="cls-1"
     cx="37.07"
     cy="13.19"
     r="4.16"
     id="circle6"
     style="stroke:#505ac9;stroke-opacity:1" />
  <path
     class="cls-1"
     d="M33.46,35.73a4,4,0,0,0,1.28.79,6.42,6.42,0,0,0,8.76-6V21.14a1.75,1.75,0,0,0-1.72-1.76H32.42"
     id="path8"
     style="stroke:#505ac9;stroke-opacity:1" />
  <path
     class="cls-1"
     d="M24.37,17.5s1.07-.17,1.42-.25A5.89,5.89,0,0,0,29.71,9.7,6,6,0,0,0,18,11.52a6.16,6.16,0,0,0,.15,1.36L18.43,14"
     id="path10"
     style="stroke:#7b83eb;stroke-opacity:1" />
  <path
     class="cls-1"
     d="M14,34a16.15,16.15,0,0,0,.55,2.07A10.5,10.5,0,0,0,24,42.5,10.43,10.43,0,0,0,34.12,31.83V21.16a1.74,1.74,0,0,0-1.7-1.78h-8"
     id="path12"
     style="stroke:#7b83eb;stroke-opacity:1" />
  <line
     class="cls-2"
     x1="10.35"
     y1="18.5"
     x2="18.65"
     y2="18.5"
     id="line14"
     style="stroke:#464eb8;stroke-opacity:1" />
  <line
     class="cls-2"
     x1="14.5"
     y1="29.5"
     x2="14.5"
     y2="18.5"
     id="line16"
     style="stroke:#464eb8;stroke-opacity:1" />
  <path
     class="cls-1"
     d="M4.5,16V32a2,2,0,0,0,2,2h16a2,2,0,0,0,2-2V16a2,2,0,0,0-2-2H6.5A2,2,0,0,0,4.5,16Z"
     id="path18"
     style="stroke:#464eb8;stroke-opacity:1" />
</svg>
