<?xml version="1.0" encoding="UTF-8" standalone="no"?>
<svg
   id="Layer_2"
   data-name="Layer 2"
   viewBox="0 0 48 48"
   version="1.1"
   sodipodi:docname="opencamera.svg"
   inkscape:version="1.2.2 (b0a8486, 2022-12-01)"
   xmlns:inkscape="http://www.inkscape.org/namespaces/inkscape"
   xmlns:sodipodi="http://sodipodi.sourceforge.net/DTD/sodipodi-0.dtd"
   xmlns="http://www.w3.org/2000/svg"
   xmlns:svg="http://www.w3.org/2000/svg">
  <sodipodi:namedview
     id="namedview9"
     pagecolor="#ffffff"
     bordercolor="#000000"
     borderopacity="0.25"
     inkscape:showpageshadow="2"
     inkscape:pageopacity="0.0"
     inkscape:pagecheckerboard="0"
     inkscape:deskcolor="#d1d1d1"
     showgrid="false"
     inkscape:zoom="17.104167"
     inkscape:cx="20.725944"
     inkscape:cy="24.058465"
     inkscape:window-width="1920"
     inkscape:window-height="1006"
     inkscape:window-x="0"
     inkscape:window-y="50"
     inkscape:window-maximized="1"
     inkscape:current-layer="Layer_2" />
  <defs
     id="defs4">
    <style
       id="style2">.cls-1{fill:none;stroke:#fff;stroke-linecap:round;stroke-linejoin:round;}</style>
  </defs>
  <path
     class="cls-1"
     d="M18.19,6.42H29.82l3.86,3.83h5.75a4.06,4.06,0,0,1,4.07,4.07V37.51a4.05,4.05,0,0,1-4.07,4.07H8.57A4.06,4.06,0,0,1,4.5,37.51V14.32a4.07,4.07,0,0,1,4.07-4.07h5.76l3.86-3.83Zm5.74,9.79a9.71,9.71,0,1,0,9.77,9.71v-.1a9.71,9.71,0,0,0-9.77-9.61Zm0,3.92a5.79,5.79,0,0,1,5.83,5.73v.06A5.79,5.79,0,1,1,24,20.13Z"
     id="path6"
     style="stroke:#2c9bf4;stroke-opacity:1" />
</svg>
