<?xml version="1.0" encoding="UTF-8" standalone="no"?>
<svg
   viewBox="0 0 48 48"
   version="1.1"
   id="svg10"
   sodipodi:docname="roblox.svg"
   inkscape:version="1.2.2 (b0a8486, 2022-12-01)"
   xmlns:inkscape="http://www.inkscape.org/namespaces/inkscape"
   xmlns:sodipodi="http://sodipodi.sourceforge.net/DTD/sodipodi-0.dtd"
   xmlns="http://www.w3.org/2000/svg"
   xmlns:svg="http://www.w3.org/2000/svg">
  <sodipodi:namedview
     id="namedview12"
     pagecolor="#ffffff"
     bordercolor="#000000"
     borderopacity="0.25"
     inkscape:showpageshadow="2"
     inkscape:pageopacity="0.0"
     inkscape:pagecheckerboard="0"
     inkscape:deskcolor="#d1d1d1"
     showgrid="false"
     inkscape:zoom="17.104167"
     inkscape:cx="22.246041"
     inkscape:cy="24.058465"
     inkscape:window-width="1920"
     inkscape:window-height="1006"
     inkscape:window-x="0"
     inkscape:window-y="50"
     inkscape:window-maximized="1"
     inkscape:current-layer="svg10" />
  <defs
     id="defs4">
    <style
       id="style2">.a{fill:none;stroke:#000;stroke-linecap:round;stroke-linejoin:round;}</style>
  </defs>
  <path
     class="a"
     d="M41.2648,12.6719,14.7123,5.5572a1.666,1.666,0,0,0-2.04,1.178L5.5572,33.2877a1.666,1.666,0,0,0,1.178,2.04l26.5525,7.1147a1.666,1.666,0,0,0,2.04-1.178l7.1147-26.5525a1.666,1.666,0,0,0-1.178-2.04Z"
     id="path6"
     style="stroke:#818181;stroke-opacity:1" />
  <path
     class="a"
     d="M29.3193,20.51l-8.1808-2.192a.5133.5133,0,0,0-.6287.3629l-2.192,8.1808a.5133.5133,0,0,0,.3629.6287l8.1808,2.192a.5133.5133,0,0,0,.6287-.3629l2.192-8.1808A.5133.5133,0,0,0,29.3193,20.51Z"
     id="path8"
     style="stroke:#818181;stroke-opacity:1" />
</svg>
