<?xml version="1.0" encoding="UTF-8" standalone="no"?>
<svg
   viewBox="0 0 48 48"
   version="1.1"
   id="svg10"
   sodipodi:docname="session.svg"
   inkscape:version="1.2.2 (b0a8486, 2022-12-01)"
   xmlns:inkscape="http://www.inkscape.org/namespaces/inkscape"
   xmlns:sodipodi="http://sodipodi.sourceforge.net/DTD/sodipodi-0.dtd"
   xmlns="http://www.w3.org/2000/svg"
   xmlns:svg="http://www.w3.org/2000/svg">
  <sodipodi:namedview
     id="namedview12"
     pagecolor="#ffffff"
     bordercolor="#000000"
     borderopacity="0.25"
     inkscape:showpageshadow="2"
     inkscape:pageopacity="0.0"
     inkscape:pagecheckerboard="0"
     inkscape:deskcolor="#d1d1d1"
     showgrid="false"
     inkscape:zoom="17.104167"
     inkscape:cx="20.725944"
     inkscape:cy="24.058465"
     inkscape:window-width="1920"
     inkscape:window-height="1006"
     inkscape:window-x="0"
     inkscape:window-y="50"
     inkscape:window-maximized="1"
     inkscape:current-layer="svg10" />
  <defs
     id="defs4">
    <style
       id="style2">.a{fill:none;stroke:#fff;stroke-linecap:round;stroke-linejoin:round;}</style>
  </defs>
  <path
     class="a"
     d="M34.51,4.5h-19a9,9,0,0,0-9,9h0a9.05,9.05,0,0,0,4.3,7.7L24,29.41V18.59H34.28a7.19,7.19,0,0,0,7.1-5.43A7.07,7.07,0,0,0,34.51,4.5Z"
     id="path6"
     style="stroke:#00f782;stroke-opacity:1" />
  <path
     class="a"
     d="M13.49,43.5h19a9,9,0,0,0,9-9h0a9.05,9.05,0,0,0-4.3-7.7L24,18.59V29.41H13.72a7.19,7.19,0,0,0-7.1,5.43A7.07,7.07,0,0,0,13.49,43.5Z"
     id="path8"
     style="stroke:#00f782;stroke-opacity:1" />
</svg>
