<?xml version="1.0" encoding="UTF-8" standalone="no"?>
<svg
   id="Layer_2"
   data-name="Layer 2"
   viewBox="0 0 48 48"
   version="1.1"
   sodipodi:docname="signal.svg"
   inkscape:version="1.2.2 (b0a8486, 2022-12-01)"
   xmlns:inkscape="http://www.inkscape.org/namespaces/inkscape"
   xmlns:sodipodi="http://sodipodi.sourceforge.net/DTD/sodipodi-0.dtd"
   xmlns="http://www.w3.org/2000/svg"
   xmlns:svg="http://www.w3.org/2000/svg">
  <sodipodi:namedview
     id="namedview17"
     pagecolor="#ffffff"
     bordercolor="#000000"
     borderopacity="0.25"
     inkscape:showpageshadow="2"
     inkscape:pageopacity="0.0"
     inkscape:pagecheckerboard="0"
     inkscape:deskcolor="#d1d1d1"
     showgrid="false"
     inkscape:zoom="17.104167"
     inkscape:cx="22.246041"
     inkscape:cy="24.058465"
     inkscape:window-width="1920"
     inkscape:window-height="1006"
     inkscape:window-x="0"
     inkscape:window-y="50"
     inkscape:window-maximized="1"
     inkscape:current-layer="Layer_2" />
  <defs
     id="defs4">
    <style
       id="style2">.cls-1{fill:none;stroke:#000;stroke-linejoin:round;}</style>
  </defs>
  <path
     class="cls-1"
     d="M27.32,45.25A23.08,23.08,0,0,1,24,45.5a22.26,22.26,0,0,1-3.26-.25m14.44-2.88a21,21,0,0,1-6.08,2.51M41.36,36.7a21.63,21.63,0,0,1-4.66,4.65m5.65-6.16,2.54-6.08a21.25,21.25,0,0,1-2.52,6.07m2.88-14.42A23.33,23.33,0,0,1,45.5,24a22.43,22.43,0,0,1-.25,3.28m-42.46,0A22.46,22.46,0,0,1,2.5,24a22.43,22.43,0,0,1,.25-3.28m39.63-7.89a21.7,21.7,0,0,1,2.51,6.08m-41.69,0a21.19,21.19,0,0,1,2.52-6.06h0m31-6.2a21.19,21.19,0,0,1,4.66,4.65m-34.71,0A21.63,21.63,0,0,1,11.3,6.64M29.09,3.1a21.57,21.57,0,0,1,6.07,2.53h0m-22.33,0a21.07,21.07,0,0,1,6.09-2.51m1.84-.37A21.88,21.88,0,0,1,24,2.5a22.29,22.29,0,0,1,3.27.25"
     id="path6"
     style="fill:none;fill-opacity:1;stroke:#598ff2;stroke-opacity:1" />
  <path
     class="cls-1"
     d="M18.87,44.87a20.92,20.92,0,0,1-5-1.95l-2.24.51"
     id="path8"
     style="fill:none;fill-opacity:1;stroke:#598ff2;stroke-opacity:1" />
  <path
     class="cls-1"
     d="M4.61,36.38l.51-2.2a21.7,21.7,0,0,1-2-5"
     id="path10"
     style="fill:none;fill-opacity:1;stroke:#598ff2;stroke-opacity:1" />
  <path
     class="cls-1"
     d="M10,43.85l-4.08,1a2.19,2.19,0,0,1-2.66-1.56,2.27,2.27,0,0,1,0-1.1l1-4.08"
     id="path12"
     style="fill:none;fill-opacity:1;stroke:#598ff2;stroke-opacity:1" />
  <path
     class="cls-1"
     d="M24,6.41a17.59,17.59,0,0,0-14.83,27l-1.65,7.1,7.16-1.64A17.59,17.59,0,1,0,24,6.41Z"
     id="path14"
     style="fill:none;fill-opacity:1;stroke:#598ff2;stroke-opacity:1" />
</svg>
