<?xml version="1.0" encoding="UTF-8" standalone="no"?>
<svg
   viewBox="0 0 48 48"
   version="1.1"
   id="svg22"
   sodipodi:docname="soundcloud.svg"
   inkscape:version="1.2.2 (b0a8486, 2022-12-01)"
   xmlns:inkscape="http://www.inkscape.org/namespaces/inkscape"
   xmlns:sodipodi="http://sodipodi.sourceforge.net/DTD/sodipodi-0.dtd"
   xmlns="http://www.w3.org/2000/svg"
   xmlns:svg="http://www.w3.org/2000/svg">
  <sodipodi:namedview
     id="namedview24"
     pagecolor="#ffffff"
     bordercolor="#000000"
     borderopacity="0.25"
     inkscape:showpageshadow="2"
     inkscape:pageopacity="0.0"
     inkscape:pagecheckerboard="0"
     inkscape:deskcolor="#d1d1d1"
     showgrid="false"
     inkscape:zoom="17.104167"
     inkscape:cx="21.719854"
     inkscape:cy="24.058465"
     inkscape:window-width="1920"
     inkscape:window-height="1006"
     inkscape:window-x="0"
     inkscape:window-y="50"
     inkscape:window-maximized="1"
     inkscape:current-layer="svg22" />
  <defs
     id="defs4">
    <style
       id="style2">.a{fill:none;stroke:#fff;stroke-linecap:round;stroke-linejoin:round;}</style>
  </defs>
  <path
     class="a"
     d="M24,30v3.26H38.42a5.08,5.08,0,0,0,0-10.16,5,5,0,0,0-1.56.27c0-.09,0-.18,0-.27A8.3,8.3,0,0,0,24,16.17h0Z"
     id="path6"
     style="stroke:#f26f23;stroke-opacity:1" />
  <line
     class="a"
     x1="4.5"
     y1="24.34"
     x2="4.5"
     y2="30.8"
     id="line8"
     style="stroke:#f26f23;stroke-opacity:1" />
  <line
     class="a"
     x1="7.28"
     y1="21.99"
     x2="7.28"
     y2="32.45"
     id="line10"
     style="stroke:#f26f23;stroke-opacity:1" />
  <line
     class="a"
     x1="10.06"
     y1="22.75"
     x2="10.06"
     y2="33.23"
     id="line12"
     style="stroke:#f26f23;stroke-opacity:1" />
  <line
     class="a"
     x1="12.84"
     y1="33.23"
     x2="12.84"
     y2="19.9"
     id="line14"
     style="stroke:#f26f23;stroke-opacity:1" />
  <line
     class="a"
     x1="15.62"
     y1="18.89"
     x2="15.62"
     y2="33.23"
     id="line16"
     style="stroke:#f26f23;stroke-opacity:1" />
  <line
     class="a"
     x1="18.4"
     y1="33.23"
     x2="18.4"
     y2="19.9"
     id="line18"
     style="stroke:#f26f23;stroke-opacity:1" />
  <line
     class="a"
     x1="21.18"
     y1="17.96"
     x2="21.18"
     y2="33.23"
     id="line20"
     style="stroke:#f26f23;stroke-opacity:1" />
</svg>
