<?xml version="1.0" encoding="UTF-8" standalone="no"?>
<svg
   id="b"
   viewBox="0 0 48 48"
   version="1.1"
   sodipodi:docname="spotify_alt_1.svg"
   inkscape:version="1.2.2 (b0a8486, 2022-12-01)"
   xmlns:inkscape="http://www.inkscape.org/namespaces/inkscape"
   xmlns:sodipodi="http://sodipodi.sourceforge.net/DTD/sodipodi-0.dtd"
   xmlns="http://www.w3.org/2000/svg"
   xmlns:svg="http://www.w3.org/2000/svg">
  <sodipodi:namedview
     id="namedview32342"
     pagecolor="#ffffff"
     bordercolor="#000000"
     borderopacity="0.25"
     inkscape:showpageshadow="2"
     inkscape:pageopacity="0.0"
     inkscape:pagecheckerboard="0"
     inkscape:deskcolor="#d1d1d1"
     showgrid="false"
     inkscape:zoom="17.104167"
     inkscape:cx="21.719854"
     inkscape:cy="24.058465"
     inkscape:window-width="1920"
     inkscape:window-height="1006"
     inkscape:window-x="0"
     inkscape:window-y="50"
     inkscape:window-maximized="1"
     inkscape:current-layer="b" />
  <defs
     id="defs32335">
    <style
       id="style32333">.c{fill:none;stroke:#fff;stroke-linecap:round;stroke-linejoin:round;}</style>
  </defs>
  <circle
     class="c"
     cx="24"
     cy="24"
     r="21.5"
     id="circle32337"
     style="stroke:#1db954;stroke-opacity:1" />
  <path
     class="c"
     d="m33.8596,33.5091c-.3851.6316-1.2118.8318-1.8434.4442-5.048-3.0834-11.4027-3.7817-18.8866-2.0719-.7212.1643-1.44-.2875-1.6043-1.009-.1651-.7214.285-1.4403,1.0079-1.6046,8.1899-1.8711,15.215-1.0655,20.8822,2.3979.6316.3877.8318,1.2118.4442,1.8434Zm2.6315-5.8541c-.4852.7887-1.5173,1.0377-2.3055.5525-5.7791-3.5522-14.5885-4.5809-21.4241-2.506-.8865.2678-1.8228-.2318-2.0919-1.1168-.267-.8865.2329-1.821,1.1178-2.0906,7.8081-2.3692,17.5151-1.2216,24.1517,2.8567.7882.4852,1.0372,1.5173.552,2.3045v-.0003Zm.2259-6.0959c-6.9293-4.1157-18.3618-4.4942-24.9776-2.4862-1.0624.3222-2.1859-.2775-2.5078-1.3399-.3219-1.0629.2773-2.1856,1.3404-2.5086,7.5945-2.3055,20.2195-1.8601,28.1974,2.876.9576.5671,1.2708,1.8013.7035,2.7556-.5648.9556-1.8023,1.2706-2.7548.7032h-.001Z"
     id="path32339"
     style="stroke:#1db954;stroke-opacity:1" />
</svg>
