<?xml version="1.0" encoding="UTF-8" standalone="no"?>
<svg
   viewBox="0 0 48 48"
   version="1.1"
   id="svg16"
   sodipodi:docname="steam_chat.svg"
   inkscape:version="1.2.2 (b0a8486, 2022-12-01)"
   xmlns:inkscape="http://www.inkscape.org/namespaces/inkscape"
   xmlns:sodipodi="http://sodipodi.sourceforge.net/DTD/sodipodi-0.dtd"
   xmlns="http://www.w3.org/2000/svg"
   xmlns:svg="http://www.w3.org/2000/svg">
  <sodipodi:namedview
     id="namedview18"
     pagecolor="#ffffff"
     bordercolor="#000000"
     borderopacity="0.25"
     inkscape:showpageshadow="2"
     inkscape:pageopacity="0.0"
     inkscape:pagecheckerboard="0"
     inkscape:deskcolor="#d1d1d1"
     showgrid="false"
     inkscape:zoom="17.104167"
     inkscape:cx="21.719854"
     inkscape:cy="24.058465"
     inkscape:window-width="1920"
     inkscape:window-height="1006"
     inkscape:window-x="0"
     inkscape:window-y="50"
     inkscape:window-maximized="1"
     inkscape:current-layer="svg16" />
  <defs
     id="defs4">
    <style
       id="style2">.a,.b{fill:none;stroke:#fff;stroke-linecap:round;}.a{stroke-linejoin:round;}</style>
  </defs>
  <circle
     class="a"
     cx="31.0582"
     cy="18.3665"
     r="7.9575"
     id="circle6"
     style="stroke:#0f7bbc;stroke-opacity:1" />
  <circle
     class="a"
     cx="17.392"
     cy="32.0809"
     r="5.6203"
     id="circle8"
     style="stroke:#0f7bbc;stroke-opacity:1" />
  <path
     class="a"
     d="M11.8516,33.0252,3.1842,29.1514m-.6248-6.7622,11.5223,5.15"
     id="path10"
     style="stroke:#0f7bbc;stroke-opacity:1" />
  <path
     class="b"
     d="M23.1007,18.3665,17.392,26.4606m5.62,5.62,8.0459-5.7569"
     id="path12"
     style="stroke:#0f7bbc;stroke-opacity:1" />
  <path
     class="a"
     d="M24,2.5A21.5,21.5,0,0,0,2.5,24,23.1389,23.1389,0,0,0,5.1649,34.2974L2.5,45.5l11.174-2.6581A21.494,21.494,0,1,0,24,2.5Z"
     id="path14"
     style="stroke:#0f7bbc;stroke-opacity:1" />
  <circle
     class="a"
     cx="31.0582"
     cy="18.3665"
     r="7.9575"
     id="circle2438"
     style="stroke:#0f7bbc;stroke-opacity:1" />
  <circle
     class="a"
     cx="17.392"
     cy="32.0809"
     r="5.6203"
     id="circle2440"
     style="stroke:#0f7bbc;stroke-opacity:1" />
  <path
     class="a"
     d="M11.8516,33.0252,3.1842,29.1514m-.6248-6.7622,11.5223,5.15"
     id="path2442"
     style="stroke:#0f7bbc;stroke-opacity:1" />
  <path
     class="b"
     d="M23.1007,18.3665,17.392,26.4606m5.62,5.62,8.0459-5.7569"
     id="path2444"
     style="stroke:#0f7bbc;stroke-opacity:1" />
  <path
     class="a"
     d="M24,2.5A21.5,21.5,0,0,0,2.5,24,23.1389,23.1389,0,0,0,5.1649,34.2974L2.5,45.5l11.174-2.6581A21.494,21.494,0,1,0,24,2.5Z"
     id="path2446"
     style="stroke:#0f7bbc;stroke-opacity:1" />
</svg>
