<?xml version="1.0" encoding="UTF-8" standalone="no"?>
<svg
   viewBox="0 0 48 48"
   version="1.1"
   id="svg8"
   sodipodi:docname="steam.svg"
   inkscape:version="1.2.2 (b0a8486, 2022-12-01)"
   xmlns:inkscape="http://www.inkscape.org/namespaces/inkscape"
   xmlns:sodipodi="http://sodipodi.sourceforge.net/DTD/sodipodi-0.dtd"
   xmlns="http://www.w3.org/2000/svg"
   xmlns:svg="http://www.w3.org/2000/svg">
  <sodipodi:namedview
     id="namedview10"
     pagecolor="#ffffff"
     bordercolor="#000000"
     borderopacity="0.25"
     inkscape:showpageshadow="2"
     inkscape:pageopacity="0.0"
     inkscape:pagecheckerboard="0"
     inkscape:deskcolor="#d1d1d1"
     showgrid="false"
     inkscape:zoom="12.094472"
     inkscape:cx="-4.754238"
     inkscape:cy="19.719753"
     inkscape:window-width="1920"
     inkscape:window-height="1006"
     inkscape:window-x="0"
     inkscape:window-y="50"
     inkscape:window-maximized="1"
     inkscape:current-layer="svg8" />
  <defs
     id="defs4">
    <style
       id="style2">.a{fill:none;stroke:#fff;stroke-linecap:round;stroke-linejoin:round;}</style>
  </defs>
  <path
     class="a"
     d="M24,2.5A21.51,21.51,0,0,0,2.5,24c0,.3,0,.61,0,.91l10.79,3.95a6,6,0,0,1,2.54-1.4,6,6,0,0,1,1.8-.21,8,8,0,0,1,.84.1h0L25,18.12a7.63,7.63,0,0,1,5.65-7.39,7.51,7.51,0,0,1,2.26-.25,7.62,7.62,0,0,1,1.68,15h0a7.46,7.46,0,0,1-2,.25h0l-9.22,6.52h0a6.06,6.06,0,0,1-11.81,2.64h0a5.64,5.64,0,0,1-.15-.82L3.78,31.26A21.49,21.49,0,1,0,24,2.5Zm8.93,8a7.51,7.51,0,0,0-2.26.25,7.63,7.63,0,0,0-5.39,9.33h0A7.62,7.62,0,0,0,40,16.12h0a7.59,7.59,0,0,0-7.07-5.64ZM17.42,27.25a6.05,6.05,0,0,0-6.05,6h0a6.05,6.05,0,0,0,6.05,6h0a6.05,6.05,0,0,0,6.06-6h0a6.05,6.05,0,0,0-6.05-6.06Z"
     id="path6"
     style="stroke:#0f7bbc;stroke-opacity:1" />
</svg>
