<?xml version="1.0" encoding="UTF-8" standalone="no"?>
<svg
   id="Layer_2"
   data-name="Layer 2"
   viewBox="0 0 48 48"
   version="1.1"
   sodipodi:docname="tutanota.svg"
   inkscape:version="1.2.2 (b0a8486, 2022-12-01)"
   xmlns:inkscape="http://www.inkscape.org/namespaces/inkscape"
   xmlns:sodipodi="http://sodipodi.sourceforge.net/DTD/sodipodi-0.dtd"
   xmlns="http://www.w3.org/2000/svg"
   xmlns:svg="http://www.w3.org/2000/svg">
  <sodipodi:namedview
     id="namedview11319"
     pagecolor="#ffffff"
     bordercolor="#000000"
     borderopacity="0.25"
     inkscape:showpageshadow="2"
     inkscape:pageopacity="0.0"
     inkscape:pagecheckerboard="0"
     inkscape:deskcolor="#d1d1d1"
     showgrid="false"
     inkscape:zoom="17.104167"
     inkscape:cx="24"
     inkscape:cy="24.058465"
     inkscape:window-width="1920"
     inkscape:window-height="1006"
     inkscape:window-x="0"
     inkscape:window-y="50"
     inkscape:window-maximized="1"
     inkscape:current-layer="Layer_2" />
  <defs
     id="defs11314">
    <style
       id="style11312">.cls-1{fill:none;stroke:#000;stroke-linecap:round;stroke-linejoin:round;}</style>
  </defs>
  <path
     class="cls-1"
     d="M7.5,5.5a2,2,0,0,0-2,2V40.68a1,1,0,0,0,1.28,1c8-2.34,20.44-5.85,23.38-10.15,1.57-3-8.56-5.07-8.14-8.21s6.46-4.3,9-4.83a8,8,0,0,1,2.92,0s-8.35,2.6-8.13,4.4,9.77,2.32,14.89,4.74l1.13.56a.49.49,0,0,0,.72-.44V7.5a2,2,0,0,0-2-2Z"
     id="path11316"
     style="stroke:#850007;stroke-opacity:1" />
</svg>
