<?xml version="1.0" encoding="UTF-8" standalone="no"?>
<svg
   viewBox="0 0 48 48"
   version="1.1"
   id="svg18490"
   sodipodi:docname="vinted.svg"
   inkscape:version="1.2.2 (b0a8486, 2022-12-01)"
   xmlns:inkscape="http://www.inkscape.org/namespaces/inkscape"
   xmlns:sodipodi="http://sodipodi.sourceforge.net/DTD/sodipodi-0.dtd"
   xmlns="http://www.w3.org/2000/svg"
   xmlns:svg="http://www.w3.org/2000/svg">
  <sodipodi:namedview
     id="namedview18492"
     pagecolor="#ffffff"
     bordercolor="#000000"
     borderopacity="0.25"
     inkscape:showpageshadow="2"
     inkscape:pageopacity="0.0"
     inkscape:pagecheckerboard="0"
     inkscape:deskcolor="#d1d1d1"
     showgrid="false"
     inkscape:zoom="17.104167"
     inkscape:cx="20.725944"
     inkscape:cy="24.058465"
     inkscape:window-width="1920"
     inkscape:window-height="1006"
     inkscape:window-x="0"
     inkscape:window-y="50"
     inkscape:window-maximized="1"
     inkscape:current-layer="svg18490" />
  <defs
     id="defs18486">
    <style
       id="style18484">.a{fill:none;stroke:#fff;stroke-linecap:round;stroke-linejoin:round;stroke-width:1px;}</style>
  </defs>
  <path
     class="a"
     d="M16.23,5.82c4.69-.69,5.11,2.25,5,5.36,0,15,.24,24.84.82,25.37,4.07-9.75,7.45-25.5,9.45-28.34A10.2,10.2,0,0,1,34,5.72c1.2-.76,2.57-1.48,2.91-1.12-.14,4.52-8,30.84-8.37,31.8A12.09,12.09,0,0,1,21.65,43c-6.39,1.52-6.82-.87-7.63-2.21-1.89-4.1-3.25-28.36-2.78-31C11.34,8.77,11.56,6.11,16.23,5.82Z"
     id="path18488"
     style="stroke:#09b1ba;stroke-opacity:1" />
</svg>
