<?xml version="1.0" encoding="UTF-8" standalone="no"?>
<svg
   viewBox="0 0 48 48"
   version="1.1"
   id="svg12"
   sodipodi:docname="vivaldi_snapshot.svg"
   inkscape:version="1.2.2 (b0a8486, 2022-12-01)"
   xmlns:inkscape="http://www.inkscape.org/namespaces/inkscape"
   xmlns:sodipodi="http://sodipodi.sourceforge.net/DTD/sodipodi-0.dtd"
   xmlns="http://www.w3.org/2000/svg"
   xmlns:svg="http://www.w3.org/2000/svg">
  <sodipodi:namedview
     id="namedview14"
     pagecolor="#ffffff"
     bordercolor="#000000"
     borderopacity="0.25"
     inkscape:showpageshadow="2"
     inkscape:pageopacity="0.0"
     inkscape:pagecheckerboard="0"
     inkscape:deskcolor="#d1d1d1"
     showgrid="false"
     inkscape:zoom="17.104167"
     inkscape:cx="20.725944"
     inkscape:cy="24.058465"
     inkscape:window-width="1920"
     inkscape:window-height="1006"
     inkscape:window-x="0"
     inkscape:window-y="50"
     inkscape:window-maximized="1"
     inkscape:current-layer="svg12" />
  <defs
     id="defs4">
    <style
       id="style2">.a{fill:none;stroke:#fff;stroke-linecap:round;stroke-linejoin:round;}</style>
  </defs>
  <path
     class="a"
     d="M29.0284,38.8632l-.7939,1.3838A4.8165,4.8165,0,0,1,24.26,42.8763a4.6074,4.6074,0,0,1-4.5713-2.4308c-3.048-5.2531-6.0618-10.5272-9.0885-15.7921q-2.761-4.8065-5.5211-9.6116a4.8557,4.8557,0,0,1,3.946-7.3594A4.6534,4.6534,0,0,1,13.49,10.19c1.3588,2.331,2.693,4.676,4.0376,7.0139.97,1.6845,1.9195,3.3807,2.9174,5.0474a7.6257,7.6257,0,0,0,6.391,3.953,7.7837,7.7837,0,0,0,8.19-6.921c.0365-.32.06-.6371.0741-.8a8.1561,8.1561,0,0,0-.8252-3.6356,4.8551,4.8551,0,1,1,9.0733-3.0243,5.0814,5.0814,0,0,1-.6653,3.2807m0,0q-3.5845,6.2376-7.1706,12.4728"
     id="path6"
     style="stroke:#ef3939;stroke-opacity:1" />
  <circle
     class="a"
     cx="34.5"
     cy="34.5"
     r="7"
     id="circle8"
     style="stroke:#ef3939;stroke-opacity:1" />
  <path
     class="a"
     d="M32.0084,37.6235A2.2379,2.2379,0,0,0,33.97,38.5h1.1844a1.9978,1.9978,0,0,0,1.9957-2h0a1.9978,1.9978,0,0,0-1.9957-2H33.8457a1.9978,1.9978,0,0,1-1.9957-2h0a1.9978,1.9978,0,0,1,1.9957-2H35.03a2.2379,2.2379,0,0,1,1.9615.8765"
     id="path10"
     style="stroke:#ef3939;stroke-opacity:1" />
</svg>
