<?xml version="1.0" encoding="UTF-8" standalone="no"?>
<svg
   id="Layer_2"
   data-name="Layer 2"
   viewBox="0 0 48 48"
   version="1.1"
   sodipodi:docname="whatsapp.svg"
   inkscape:version="1.2.2 (b0a8486, 2022-12-01)"
   xmlns:inkscape="http://www.inkscape.org/namespaces/inkscape"
   xmlns:sodipodi="http://sodipodi.sourceforge.net/DTD/sodipodi-0.dtd"
   xmlns="http://www.w3.org/2000/svg"
   xmlns:svg="http://www.w3.org/2000/svg">
  <sodipodi:namedview
     id="namedview9"
     pagecolor="#ffffff"
     bordercolor="#000000"
     borderopacity="0.25"
     inkscape:showpageshadow="2"
     inkscape:pageopacity="0.0"
     inkscape:pagecheckerboard="0"
     inkscape:deskcolor="#d1d1d1"
     showgrid="false"
     inkscape:zoom="17.104167"
     inkscape:cx="20.725944"
     inkscape:cy="24.058465"
     inkscape:window-width="1920"
     inkscape:window-height="1006"
     inkscape:window-x="0"
     inkscape:window-y="50"
     inkscape:window-maximized="1"
     inkscape:current-layer="Layer_2" />
  <defs
     id="defs4">
    <style
       id="style2">.cls-1{fill:none;stroke:#fff;stroke-linecap:round;stroke-linejoin:round;}</style>
  </defs>
  <path
     class="cls-1"
     d="M24,2.5A21.52,21.52,0,0,0,5.15,34.36L2.5,45.5l11.14-2.65A21.5,21.5,0,1,0,24,2.5ZM13.25,12.27h5.86a1,1,0,0,1,1,1,10.4,10.4,0,0,0,.66,3.91,1.93,1.93,0,0,1-.66,2.44l-2.05,2a18.6,18.6,0,0,0,3.52,4.79A18.6,18.6,0,0,0,26.35,30l2-2.05c1-1,1.46-1,2.44-.66a10.4,10.4,0,0,0,3.91.66,1.05,1.05,0,0,1,1,1v5.86a1.05,1.05,0,0,1-1,1,23.68,23.68,0,0,1-15.64-6.84,23.6,23.6,0,0,1-6.84-15.64A1.07,1.07,0,0,1,13.25,12.27Z"
     id="path6"
     style="stroke:#28d146;stroke-opacity:1" />
</svg>
