<?xml version="1.0" encoding="UTF-8" standalone="no"?>
<svg
   viewBox="0 0 48 48"
   version="1.1"
   id="svg14"
   sodipodi:docname="wulkanowy.svg"
   inkscape:version="1.2.2 (b0a8486, 2022-12-01)"
   xmlns:inkscape="http://www.inkscape.org/namespaces/inkscape"
   xmlns:sodipodi="http://sodipodi.sourceforge.net/DTD/sodipodi-0.dtd"
   xmlns="http://www.w3.org/2000/svg"
   xmlns:svg="http://www.w3.org/2000/svg">
  <sodipodi:namedview
     id="namedview16"
     pagecolor="#ffffff"
     bordercolor="#000000"
     borderopacity="0.25"
     inkscape:showpageshadow="2"
     inkscape:pageopacity="0.0"
     inkscape:pagecheckerboard="0"
     inkscape:deskcolor="#d1d1d1"
     showgrid="false"
     inkscape:zoom="17.104167"
     inkscape:cx="20.725944"
     inkscape:cy="24.058465"
     inkscape:window-width="1920"
     inkscape:window-height="1006"
     inkscape:window-x="0"
     inkscape:window-y="50"
     inkscape:window-maximized="1"
     inkscape:current-layer="svg14" />
  <defs
     id="defs4">
    <style
       id="style2">.a{fill:none;stroke:#fff;stroke-linecap:round;stroke-linejoin:round;}</style>
  </defs>
  <path
     class="a"
     d="M42.4934,42.5H35.7447l-4.3431-5.775-1.841-6.1834-5.5532-2.81L23.0731,23.62l-1.6891-2.458,1.4064-2.73,2.2018-.056L27.07,17.1289,32.288,27.2724l.3978,3.7089,9.81,10.8887Z"
     id="path6"
     style="stroke:#d32f2f;stroke-opacity:1" />
  <path
     class="a"
     d="M29.3079,42.5h-9.674l-2.69-6.411,2.186-5.2359-1.6029-3.2855,2.4078-4.63.597.1862,2.4745,7.1054,4.4944,1.5291,2.1774,6.345Z"
     id="path8"
     style="stroke:#d32f2f;stroke-opacity:1" />
  <path
     class="a"
     d="M16.2614,40.5549,14.78,42.5H5.5041l5.8006-9.0745,2.5923-11.282,3.47-2.2227a9.4139,9.4139,0,0,1,.1844-2.2578c.2811-.459,1.5874-.2789,1.5874-.2789a.8406.8406,0,0,1,.4149.9215L15.999,27.4493,16.84,31.785,14.7677,36.28Z"
     id="path10"
     style="stroke:#d32f2f;stroke-opacity:1" />
  <path
     class="a"
     d="M21.0022,16.26c.453-1.0341.1042-1.3538.1042-1.3538-2.1925-.4515-3.7976-3.5495-.7426-5.2111-.39-.9207.7874-1.6471,1.542-1.55.4819-.7307.8789-.8522,1.5928-.61,1.4583-2.013,3.6168-1.9194,6.4947-1.34,2.4953-1.7342,4.1891.1693,3.7405,1.4656,2.3634.3982,1.5922,3.5028-.2541,3.0833.0062.8017-.3231,1.2428-1.188,1.1083-.6249,1.9674-2.679,2.5683-5.9622,1.9941a.9748.9748,0,0,1-1.2709.697c-.0362.9432-.1263,1.8583-2.5079,1.5807a.974.974,0,0,1-.9025.7882C21.15,16.9,20.8151,16.6871,21.0022,16.26Z"
     id="path12"
     style="stroke:#d32f2f;stroke-opacity:1" />
</svg>
